<svg xmlns="http://www.w3.org/2000/svg" xmlns:xlink="http://www.w3.org/1999/xlink" width="500" zoomAndPan="magnify" viewBox="0 0 375 374.999991" height="500" preserveAspectRatio="xMidYMid meet" version="1.0"><defs><clipPath id="494d9b7bf8"><path d="M 57 64 L 280 64 L 280 308 L 57 308 Z M 57 64 " clip-rule="nonzero"/></clipPath><clipPath id="512fc8f2c8"><path d="M 37.5 56.253906 L 252.710938 19.945312 L 300.121094 300.976562 L 84.914062 337.285156 Z M 37.5 56.253906 " clip-rule="nonzero"/></clipPath><clipPath id="45ce56b448"><path d="M 37.5 56.253906 L 252.710938 19.945312 L 300.121094 300.976562 L 84.914062 337.285156 Z M 37.5 56.253906 " clip-rule="nonzero"/></clipPath><clipPath id="a7b1b838ab"><path d="M 37.5 56.253906 L 252.710938 19.945312 L 300.121094 300.976562 L 84.914062 337.285156 Z M 37.5 56.253906 " clip-rule="nonzero"/></clipPath><clipPath id="a431b3d710"><path d="M 99 131 L 239 131 L 239 271 L 99 271 Z M 99 131 " clip-rule="nonzero"/></clipPath><clipPath id="ca4901d2ce"><path d="M 37.5 56.253906 L 252.710938 19.945312 L 300.121094 300.976562 L 84.914062 337.285156 Z M 37.5 56.253906 " clip-rule="nonzero"/></clipPath><clipPath id="8be5898c6f"><path d="M 37.5 56.253906 L 252.710938 19.945312 L 300.121094 300.976562 L 84.914062 337.285156 Z M 37.5 56.253906 " clip-rule="nonzero"/></clipPath><clipPath id="08e799f405"><path d="M 37.5 56.253906 L 252.710938 19.945312 L 300.121094 300.976562 L 84.914062 337.285156 Z M 37.5 56.253906 " clip-rule="nonzero"/></clipPath><clipPath id="e73d658659"><path d="M 51 54 L 274 54 L 274 332 L 51 332 Z M 51 54 " clip-rule="nonzero"/></clipPath><clipPath id="dd20810179"><path d="M 37.5 56.253906 L 252.710938 19.945312 L 300.121094 300.976562 L 84.914062 337.285156 Z M 37.5 56.253906 " clip-rule="nonzero"/></clipPath><clipPath id="d91471feb5"><path d="M 37.5 56.253906 L 252.710938 19.945312 L 300.121094 300.976562 L 84.914062 337.285156 Z M 37.5 56.253906 " clip-rule="nonzero"/></clipPath><clipPath id="c73aea5038"><path d="M 37.5 56.253906 L 252.710938 19.945312 L 300.121094 300.976562 L 84.914062 337.285156 Z M 37.5 56.253906 " clip-rule="nonzero"/></clipPath><clipPath id="d3ef88c583"><path d="M 42.414062 85.382812 L 257.605469 49.078125 L 300.089844 300.886719 L 84.898438 337.191406 Z M 42.414062 85.382812 " clip-rule="nonzero"/></clipPath><clipPath id="20240be817"><path d="M 107 135 L 235 135 L 235 264 L 107 264 Z M 107 135 " clip-rule="nonzero"/></clipPath><clipPath id="9e40dcd9aa"><path d="M 37.5 56.253906 L 252.710938 19.945312 L 300.121094 300.976562 L 84.914062 337.285156 Z M 37.5 56.253906 " clip-rule="nonzero"/></clipPath><clipPath id="6433143329"><path d="M 37.5 56.253906 L 252.710938 19.945312 L 300.121094 300.976562 L 84.914062 337.285156 Z M 37.5 56.253906 " clip-rule="nonzero"/></clipPath><clipPath id="b1ec361ab3"><path d="M 37.5 56.253906 L 252.710938 19.945312 L 300.121094 300.976562 L 84.914062 337.285156 Z M 37.5 56.253906 " clip-rule="nonzero"/></clipPath><clipPath id="625a042d47"><path d="M 53 33 L 254 33 L 254 101 L 53 101 Z M 53 33 " clip-rule="nonzero"/></clipPath><clipPath id="ca8fa5eeaa"><path d="M 37.5 56.253906 L 252.710938 19.945312 L 300.121094 300.976562 L 84.914062 337.285156 Z M 37.5 56.253906 " clip-rule="nonzero"/></clipPath><clipPath id="19ebc5e6d0"><path d="M 37.5 56.253906 L 252.710938 19.945312 L 300.121094 300.976562 L 84.914062 337.285156 Z M 37.5 56.253906 " clip-rule="nonzero"/></clipPath><clipPath id="42b0e68df8"><path d="M 37.5 56.253906 L 252.710938 19.945312 L 300.121094 300.976562 L 84.914062 337.285156 Z M 37.5 56.253906 " clip-rule="nonzero"/></clipPath></defs><g clip-path="url(#494d9b7bf8)"><g clip-path="url(#512fc8f2c8)"><g clip-path="url(#45ce56b448)"><g clip-path="url(#a7b1b838ab)"><path fill="#c2cc8f" d="M 239.714844 67.910156 C 239.007812 67.625 238.308594 67.320312 237.605469 67.023438 C 236.101562 66.660156 234.597656 66.304688 233.09375 65.9375 C 229.183594 64.976562 225.226562 64.644531 221.207031 65 C 211.304688 65.878906 202.074219 68.808594 193.597656 74.046875 C 189.777344 76.40625 187.140625 79.832031 185.042969 83.71875 C 184.84375 84.078125 184.640625 84.527344 184.691406 84.902344 C 184.75 85.351562 184.96875 85.988281 185.308594 86.15625 C 188.746094 87.871094 192.199219 89.570312 195.703125 91.148438 C 201.304688 93.675781 206.953125 96.097656 212.574219 98.585938 C 214.917969 99.625 217.234375 100.726562 219.5625 101.808594 C 219.828125 101.929688 220.066406 102.113281 220.316406 102.269531 C 222.347656 103.203125 224.378906 104.132812 226.414062 105.0625 C 227.902344 105.738281 229.421875 106.351562 230.875 107.09375 C 239.003906 111.238281 247.105469 115.429688 255.238281 119.5625 C 256.933594 120.421875 258.699219 121.160156 260.480469 121.832031 C 261.558594 122.238281 262.753906 122.183594 263.511719 121.179688 C 264.742188 119.554688 265.355469 117.660156 265.457031 115.617188 C 263.59375 115.226562 261.671875 115.015625 259.875 114.417969 C 255.433594 112.945312 250.929688 111.5625 246.660156 109.664062 C 236.816406 105.285156 227.085938 100.652344 217.335938 96.0625 C 213.558594 94.285156 209.835938 92.386719 206.125 90.472656 C 204.511719 89.636719 202.980469 88.640625 201.425781 87.6875 C 200.394531 87.050781 200.015625 86.511719 199.84375 85.371094 C 200.628906 85.582031 201.40625 85.617188 201.980469 85.972656 C 206.882812 89.027344 212.296875 90.957031 217.671875 92.910156 C 225.371094 95.703125 233.261719 97.859375 241.363281 99.144531 C 243.992188 99.558594 246.621094 99.804688 249.273438 99.234375 C 253.222656 98.386719 254.890625 94.894531 253.015625 91.3125 C 251.261719 87.949219 248.679688 85.285156 245.652344 83.128906 C 242.109375 80.601562 238.347656 78.386719 234.71875 75.976562 C 233.359375 75.070312 232.015625 74.097656 230.84375 72.96875 C 229.394531 71.582031 230.019531 69.773438 232.011719 69.417969 C 234.109375 69.042969 236.160156 69.507812 238.03125 70.382812 C 240.835938 71.695312 243.636719 73.066406 246.257812 74.703125 C 251.667969 78.082031 256.675781 81.988281 261.039062 86.679688 C 261.582031 87.265625 262.132812 87.847656 262.679688 88.433594 C 262.585938 88.152344 262.519531 87.859375 262.402344 87.59375 C 259.222656 80.609375 253.847656 75.683594 247.480469 71.6875 C 246.378906 70.996094 245.253906 70.339844 244.136719 69.667969 C 242.664062 69.085938 241.1875 68.503906 239.714844 67.910156 Z M 61.242188 105.285156 L 61.246094 105.269531 C 60.777344 106.988281 60.132812 108.679688 59.871094 110.429688 C 59.0625 115.816406 59.230469 121.214844 60.519531 126.507812 C 61.328125 129.832031 63.019531 132.601562 66.679688 133.523438 C 68.75 134.042969 70.6875 133.917969 72.617188 132.789062 C 78.109375 129.574219 83.078125 125.65625 87.867188 121.515625 C 92.679688 117.363281 97.347656 113.039062 102.082031 108.800781 C 102.480469 108.445312 102.917969 108.125 103.367188 107.832031 C 103.929688 107.457031 104.613281 107.433594 104.964844 107.984375 C 105.222656 108.378906 105.269531 109.082031 105.101562 109.535156 C 104.863281 110.152344 104.382812 110.699219 103.929688 111.214844 C 99.265625 116.53125 94.578125 121.828125 89.917969 127.148438 C 86.792969 130.714844 83.71875 134.332031 80.597656 137.902344 C 76.199219 142.9375 71.902344 148.078125 66.328125 151.917969 C 64.316406 153.304688 62.148438 154.34375 59.730469 154.78125 C 59.144531 154.886719 58.546875 154.894531 57.953125 154.953125 C 58.875 155.773438 59.761719 156.644531 60.75 157.386719 C 61.015625 157.585938 61.6875 157.546875 61.996094 157.347656 C 63.28125 156.503906 64.636719 155.695312 65.722656 154.621094 C 73.261719 147.195312 80.738281 139.703125 88.234375 132.234375 C 89.304688 131.167969 90.386719 130.105469 91.460938 129.042969 C 92.585938 127.847656 93.695312 126.640625 94.839844 125.464844 C 95.195312 125.101562 95.648438 124.824219 96.054688 124.503906 C 96.628906 123.835938 97.15625 123.121094 97.777344 122.5 C 104.4375 115.863281 111.246094 109.386719 118.417969 103.292969 C 120.28125 101.714844 122.007812 99.96875 123.730469 98.234375 C 124.371094 97.585938 124.914062 96.804688 125.320312 95.992188 C 125.5 95.628906 125.34375 94.992188 125.148438 94.574219 C 124.3125 92.8125 122.746094 91.753906 121.105469 90.902344 C 115.363281 87.925781 109.199219 86.546875 102.765625 86.285156 C 99.628906 86.15625 96.5 86.289062 93.425781 86.976562 C 88.519531 88.070312 83.757812 89.628906 79.300781 91.957031 C 76.105469 93.625 73.042969 95.542969 69.921875 97.34375 C 69.664062 97.492188 69.394531 97.613281 69.128906 97.75 C 67.730469 98.929688 66.332031 100.113281 64.929688 101.285156 C 64.578125 101.585938 64.199219 101.855469 63.828125 102.140625 C 63.011719 103.066406 62.195312 103.992188 61.378906 104.917969 C 61.332031 105.039062 61.289062 105.164062 61.242188 105.285156 Z M 124.65625 113.253906 C 123.371094 113.617188 122.308594 113.976562 121.550781 114.898438 C 121.074219 115.484375 121.085938 116.144531 121.511719 116.707031 C 121.972656 117.316406 122.746094 117.542969 123.339844 117.078125 C 124.179688 116.417969 124.921875 115.597656 125.578125 114.746094 C 125.808594 114.453125 125.785156 113.800781 125.617188 113.433594 C 125.523438 113.234375 124.882812 113.289062 124.65625 113.253906 Z M 77.652344 215.441406 C 78.449219 220.523438 79.898438 225.4375 81.433594 230.332031 C 83.027344 235.40625 84.925781 240.34375 87.480469 245.019531 C 91.144531 251.71875 95.359375 258.03125 100.253906 263.898438 C 105.914062 270.691406 112.292969 276.726562 119.382812 282 C 124.925781 286.121094 130.835938 289.644531 137.074219 292.632812 C 145.476562 296.652344 154.257812 299.472656 163.421875 301.09375 C 169.546875 302.175781 175.726562 302.632812 181.945312 302.507812 C 183.789062 302.472656 185.652344 302.417969 187.464844 302.121094 C 190.316406 301.65625 191.773438 298.800781 190.582031 296.296875 C 189.824219 294.699219 187.851562 293.898438 185.53125 293.957031 C 181.605469 294.050781 177.664062 294.179688 173.75 293.964844 C 165.589844 293.507812 157.683594 291.71875 149.980469 289.015625 C 142.535156 286.40625 135.492188 282.957031 128.976562 278.535156 C 125.230469 275.996094 121.65625 273.175781 118.167969 270.285156 C 112.835938 265.878906 108.195312 260.777344 103.996094 255.292969 C 96.8125 245.90625 91.3125 235.570312 87.164062 224.550781 C 85.347656 219.71875 84.097656 214.652344 82.902344 209.613281 C 81.585938 204.058594 81.269531 198.359375 81.230469 192.644531 C 81.171875 184.992188 82.152344 177.460938 83.847656 170.027344 C 85.425781 163.082031 87.675781 156.339844 91.035156 150.027344 C 92.390625 147.476562 93.808594 144.9375 95.433594 142.5625 C 97.121094 140.105469 99.109375 137.859375 100.941406 135.503906 C 102.351562 133.6875 103.628906 131.757812 105.148438 130.039062 C 108.292969 126.476562 112.46875 124.117188 116.027344 121.035156 C 116.457031 120.660156 116.875 120.351562 116.492188 119.816406 C 116.128906 119.304688 115.613281 119.441406 115.160156 119.800781 C 114.972656 119.949219 114.792969 120.109375 114.589844 120.230469 C 112.035156 121.746094 109.71875 123.554688 107.636719 125.683594 C 106.386719 126.960938 105.070312 128.191406 103.675781 129.304688 C 100.492188 131.855469 97.511719 134.605469 95.195312 137.988281 C 93.664062 140.226562 92.292969 142.578125 90.773438 144.828125 C 86.929688 150.523438 83.917969 156.632812 81.488281 163.046875 C 78.597656 170.667969 76.949219 178.558594 76.25 186.660156 C 75.414062 196.320312 76.175781 205.894531 77.652344 215.441406 Z M 180.757812 269.46875 C 183.523438 268.765625 186.300781 268.101562 189.054688 267.355469 C 193.496094 266.152344 197.703125 264.34375 201.761719 262.199219 C 205.617188 260.164062 209.253906 257.78125 212.675781 255.0625 C 216.875 251.726562 220.660156 247.984375 223.90625 243.730469 C 225.816406 241.21875 227.542969 238.554688 229.210938 235.871094 C 231.851562 231.628906 233.835938 227.0625 235.382812 222.320312 C 237.699219 215.21875 239.011719 207.929688 238.820312 200.445312 C 238.726562 196.625 238.421875 192.789062 237.925781 188.996094 C 237.589844 186.417969 236.878906 183.867188 236.132812 181.367188 C 235.285156 178.523438 234.363281 175.683594 233.199219 172.964844 C 230.90625 167.605469 227.953125 162.617188 224.355469 158.003906 C 220.484375 153.039062 216.109375 148.578125 211.039062 144.875 C 208.042969 142.683594 204.84375 140.726562 201.578125 138.957031 C 195.964844 135.921875 189.988281 133.785156 183.734375 132.457031 C 179.945312 131.648438 176.121094 131.03125 172.230469 131.082031 C 169.855469 131.113281 167.480469 131.152344 165.109375 131.238281 C 162.972656 131.3125 160.828125 131.371094 158.707031 131.601562 C 157.144531 131.773438 155.589844 132.136719 154.066406 132.542969 C 150.828125 133.40625 147.558594 134.207031 144.394531 135.292969 C 138.816406 137.203125 133.589844 139.859375 128.816406 143.339844 C 124.953125 146.160156 121.410156 149.335938 118.160156 152.855469 C 114.601562 156.703125 111.472656 160.867188 108.859375 165.398438 C 105.515625 171.179688 103.058594 177.332031 101.460938 183.835938 C 99.179688 193.132812 98.949219 202.496094 100.382812 211.914062 C 100.78125 214.519531 101.546875 217.074219 102.183594 219.640625 C 103.203125 223.726562 104.761719 227.617188 106.621094 231.378906 C 111.320312 240.882812 117.914062 248.878906 126.21875 255.445312 C 129.5 258.03125 132.996094 260.324219 136.703125 262.273438 C 143.753906 265.992188 151.242188 268.445312 159.121094 269.605469 C 166.320312 270.664062 173.53125 270.597656 180.757812 269.46875 Z M 121.527344 294.027344 C 120.570312 293.390625 119.632812 292.722656 118.648438 292.128906 C 114.570312 289.6875 110.699219 286.960938 106.984375 284 C 102.773438 280.640625 98.871094 276.96875 95.253906 272.988281 C 86.023438 262.832031 78.835938 251.394531 74 238.546875 C 72.449219 234.4375 71.300781 230.164062 70.15625 225.914062 C 69.375 223.011719 68.78125 220.042969 68.332031 217.070312 C 66.84375 207.175781 66.703125 197.257812 67.988281 187.320312 C 68.800781 181.0625 70.09375 174.910156 72.015625 168.898438 C 74.398438 161.453125 77.542969 154.335938 81.617188 147.664062 C 83.683594 144.28125 85.921875 140.996094 88.230469 137.769531 C 89.769531 135.613281 91.566406 133.644531 93.242188 131.585938 C 93.386719 131.410156 93.476562 131.195312 93.597656 130.996094 C 95.046875 129.507812 96.503906 128.023438 97.953125 126.535156 C 99.054688 125.539062 100.160156 124.542969 101.257812 123.542969 C 107.65625 117.707031 114.636719 112.679688 122.238281 108.527344 C 124.070312 107.53125 126.070312 106.789062 127.761719 105.601562 C 129.613281 104.304688 131.542969 103.226562 133.597656 102.347656 C 138.679688 100.175781 143.953125 98.617188 149.355469 97.464844 C 153.148438 96.824219 156.945312 96.1875 160.742188 95.550781 C 163.445312 95.34375 166.140625 95.085938 168.847656 94.941406 C 174.90625 94.617188 180.945312 94.941406 186.953125 95.746094 C 197.679688 97.175781 207.964844 100.15625 217.773438 104.746094 C 218.144531 104.917969 218.558594 104.988281 218.953125 105.101562 C 219.488281 105.4375 220.003906 105.8125 220.566406 106.101562 C 222.007812 106.839844 223.464844 107.542969 224.914062 108.257812 C 226.242188 109.101562 227.597656 109.902344 228.882812 110.800781 C 232.667969 113.457031 236.496094 116.058594 240.167969 118.859375 C 244.324219 122.03125 248.039062 125.707031 251.5625 129.574219 C 259.796875 138.617188 266.300781 148.777344 271.058594 160.042969 C 273.039062 164.738281 274.796875 169.523438 275.941406 174.503906 C 276.773438 178.132812 277.695312 181.757812 278.253906 185.433594 C 280.34375 199.179688 279.765625 212.828125 276.449219 226.347656 C 274.394531 234.738281 271.378906 242.765625 267.378906 250.417969 C 264.496094 255.933594 261.101562 261.128906 257.339844 266.078125 C 256.132812 267.667969 254.796875 269.160156 253.53125 270.707031 C 253.425781 270.832031 253.398438 271.019531 253.335938 271.179688 C 253.082031 271.382812 252.789062 271.546875 252.578125 271.785156 C 246.6875 278.457031 240.003906 284.230469 232.683594 289.28125 C 232.121094 289.664062 231.578125 290.078125 231.027344 290.476562 C 230.046875 291.039062 229.058594 291.578125 228.089844 292.160156 C 221.558594 296.101562 214.675781 299.261719 207.464844 301.757812 C 200.375 304.214844 193.078125 305.722656 185.671875 306.59375 C 173.773438 307.996094 161.9375 307.371094 150.222656 304.75 C 149.90625 304.679688 149.578125 304.65625 149.253906 304.613281 C 149.144531 304.570312 149.039062 304.511719 148.929688 304.484375 C 139.722656 302.316406 130.984375 298.929688 122.652344 294.464844 C 122.300781 294.277344 121.90625 294.171875 121.527344 294.027344 " fill-opacity="1" fill-rule="nonzero"/></g></g></g></g><g clip-path="url(#a431b3d710)"><g clip-path="url(#ca4901d2ce)"><g clip-path="url(#8be5898c6f)"><g clip-path="url(#08e799f405)"><path fill="#f8dba8" d="M 228.558594 219.582031 C 228.929688 219.320312 229.46875 219.128906 229.515625 218.855469 C 229.578125 218.496094 229.351562 217.960938 229.066406 217.699219 C 228.597656 217.269531 228.019531 216.871094 227.414062 216.667969 C 223.546875 215.375 219.671875 214.109375 215.777344 212.910156 C 214.941406 212.652344 214.011719 212.648438 213.125 212.644531 C 212.460938 212.636719 211.886719 212.988281 211.78125 213.71875 C 211.671875 214.4375 212.085938 214.898438 212.71875 215.175781 C 213.015625 215.308594 213.324219 215.425781 213.640625 215.511719 C 214.902344 215.863281 216.179688 216.171875 217.433594 216.546875 C 220.3125 217.40625 223.179688 218.320312 226.066406 219.160156 C 226.851562 219.390625 227.695312 219.441406 228.558594 219.582031 Z M 224.691406 190.054688 C 224.675781 189.957031 224.65625 189.859375 224.640625 189.761719 C 222.964844 190.046875 221.289062 190.324219 219.613281 190.613281 C 218.703125 190.773438 217.78125 190.894531 216.894531 191.144531 C 215.742188 191.46875 215.230469 192.214844 215.382812 193.132812 C 215.539062 194.058594 216.359375 194.609375 217.554688 194.539062 C 218.449219 194.488281 219.351562 194.453125 220.226562 194.285156 C 224.296875 193.503906 228.359375 192.683594 232.425781 191.863281 C 232.800781 191.785156 233.175781 191.648438 233.515625 191.476562 C 234.097656 191.179688 234.597656 190.753906 234.503906 190.027344 C 234.417969 189.285156 233.816406 188.996094 233.175781 188.914062 C 232.589844 188.84375 231.976562 188.84375 231.394531 188.9375 C 229.15625 189.285156 226.925781 189.679688 224.691406 190.054688 Z M 210.722656 244.097656 C 210.328125 243.292969 210.066406 242.550781 209.632812 241.925781 C 207.179688 238.410156 204.699219 234.917969 202.199219 231.429688 C 201.859375 230.953125 201.414062 230.527344 200.957031 230.160156 C 200.394531 229.707031 199.730469 229.664062 199.121094 230.066406 C 198.5 230.472656 198.351562 231.121094 198.511719 231.804688 C 198.613281 232.234375 198.800781 232.65625 199.019531 233.039062 C 201.257812 236.988281 203.671875 240.8125 206.851562 244.085938 C 207.363281 244.617188 207.945312 245.140625 208.597656 245.445312 C 209.066406 245.667969 209.8125 245.71875 210.242188 245.488281 C 210.5625 245.320312 210.578125 244.578125 210.722656 244.097656 Z M 151.753906 255.710938 C 152.078125 256.160156 152.375 256.976562 152.78125 257.035156 C 153.285156 257.105469 154.007812 256.664062 154.398438 256.226562 C 154.898438 255.667969 155.277344 254.933594 155.503906 254.210938 C 156.410156 251.34375 157.269531 248.457031 158.074219 245.558594 C 158.597656 243.664062 159.023438 241.742188 159.425781 239.816406 C 159.675781 238.621094 159.238281 237.804688 158.363281 237.5625 C 157.445312 237.304688 156.671875 237.816406 156.269531 239.035156 C 155.898438 240.164062 155.59375 241.320312 155.253906 242.460938 C 154.207031 245.972656 153.136719 249.476562 152.128906 252.996094 C 151.894531 253.8125 151.886719 254.695312 151.753906 255.710938 Z M 124.457031 238.550781 C 125.207031 238.144531 125.796875 237.90625 126.292969 237.539062 C 129.917969 234.875 133.550781 232.21875 137.121094 229.484375 C 138 228.808594 138.699219 227.871094 139.40625 226.992188 C 139.640625 226.707031 139.640625 226.230469 139.75 225.839844 C 139.335938 225.730469 138.925781 225.597656 138.507812 225.53125 C 138.3125 225.496094 138.078125 225.550781 137.894531 225.636719 C 136.753906 226.136719 135.527344 226.515625 134.503906 227.199219 C 130.96875 229.566406 127.5 232.035156 124.023438 234.496094 C 123.53125 234.851562 123.097656 235.347656 122.765625 235.863281 C 122.386719 236.453125 122.367188 237.191406 122.894531 237.683594 C 123.328125 238.09375 123.964844 238.289062 124.457031 238.550781 Z M 142.25 173.277344 C 142.1875 173.257812 142.128906 173.234375 142.070312 173.214844 C 141.996094 172.957031 141.957031 172.679688 141.84375 172.445312 C 141.625 171.992188 141.417969 171.511719 141.109375 171.117188 C 137.882812 167.023438 134.640625 162.945312 131.394531 158.863281 C 131.265625 158.707031 131.101562 158.566406 130.9375 158.441406 C 130.265625 157.921875 129.554688 157.71875 128.796875 158.238281 C 128.140625 158.683594 127.902344 159.558594 128.269531 160.40625 C 128.515625 160.972656 128.8125 161.546875 129.199219 162.027344 C 132.199219 165.808594 135.214844 169.578125 138.265625 173.320312 C 138.722656 173.882812 139.328125 174.40625 139.976562 174.71875 C 140.46875 174.960938 141.269531 175.0625 141.691406 174.816406 C 142.054688 174.609375 142.078125 173.8125 142.25 173.277344 Z M 125.0625 207.265625 C 120.476562 208.511719 116.265625 209.632812 112.070312 210.8125 C 110.839844 211.160156 109.632812 211.613281 108.457031 212.109375 C 107.71875 212.421875 107.257812 213.0625 107.441406 213.914062 C 107.625 214.769531 108.339844 215.09375 109.128906 215.109375 C 109.777344 215.128906 110.449219 215.058594 111.082031 214.898438 C 115.570312 213.773438 120.0625 212.65625 124.527344 211.441406 C 125.746094 211.109375 126.910156 210.515625 128.035156 209.921875 C 128.613281 209.617188 129.023438 209.015625 128.835938 208.265625 C 128.652344 207.507812 128.007812 207.222656 127.347656 207.183594 C 126.460938 207.128906 125.570312 207.242188 125.0625 207.265625 Z M 210.394531 175.957031 C 210.425781 176.015625 210.457031 176.074219 210.488281 176.132812 C 211.621094 175.558594 212.882812 175.144531 213.867188 174.378906 C 217.707031 171.402344 221.46875 168.316406 225.246094 165.261719 C 225.566406 165 225.832031 164.660156 226.066406 164.320312 C 226.453125 163.765625 226.550781 163.160156 226.136719 162.566406 C 225.722656 161.972656 225.097656 161.816406 224.46875 162.058594 C 223.753906 162.335938 223.054688 162.691406 222.421875 163.125 C 219.957031 164.804688 217.5 166.5 215.078125 168.238281 C 213.601562 169.300781 212.097656 170.351562 210.796875 171.609375 C 209.90625 172.472656 209.246094 173.625 208.675781 174.75 C 208.28125 175.515625 208.710938 175.984375 209.59375 176.023438 C 209.859375 176.03125 210.125 175.980469 210.394531 175.957031 Z M 133.574219 191.097656 C 133.65625 190.960938 133.738281 190.820312 133.820312 190.6875 C 133.546875 190.257812 133.359375 189.714844 132.984375 189.417969 C 131.910156 188.582031 130.835938 187.671875 129.621094 187.089844 C 124.988281 184.894531 120.046875 183.613281 115.074219 182.453125 C 114.535156 182.328125 113.90625 182.238281 113.398438 182.386719 C 112.917969 182.53125 112.316406 182.941406 112.183594 183.367188 C 112.050781 183.792969 112.308594 184.476562 112.621094 184.867188 C 112.953125 185.28125 113.515625 185.589844 114.035156 185.761719 C 119.074219 187.425781 124.101562 189.121094 129.179688 190.652344 C 130.5625 191.070312 132.105469 190.960938 133.574219 191.097656 Z M 193.386719 166.597656 C 193.855469 167.109375 194.210938 167.730469 194.746094 168.027344 C 195.433594 168.410156 196.101562 167.953125 196.554688 167.421875 C 196.996094 166.90625 197.40625 166.324219 197.648438 165.699219 C 198.386719 163.78125 199.035156 161.828125 199.730469 159.894531 C 200.957031 156.46875 202.203125 153.054688 203.421875 149.625 C 203.628906 149.039062 203.78125 148.417969 203.855469 147.800781 C 203.945312 147.03125 203.65625 146.378906 202.917969 146.03125 C 202.167969 145.679688 201.472656 145.890625 200.972656 146.476562 C 200.515625 147.011719 200.074219 147.617188 199.820312 148.269531 C 197.902344 153.121094 196.003906 157.980469 194.179688 162.867188 C 193.761719 163.992188 193.667969 165.234375 193.386719 166.597656 Z M 183.773438 250.144531 C 183.828125 250.132812 183.878906 250.121094 183.929688 250.109375 C 183.800781 249.042969 183.6875 247.972656 183.539062 246.910156 C 183.386719 245.816406 183.234375 244.71875 183.007812 243.640625 C 182.847656 242.859375 182.625 242.070312 182.3125 241.335938 C 181.769531 240.0625 180.886719 239.542969 179.828125 239.753906 C 178.808594 239.957031 178.097656 240.863281 178.183594 242.199219 C 178.269531 243.53125 178.511719 244.859375 178.792969 246.167969 C 179.351562 248.730469 180.035156 251.269531 180.570312 253.839844 C 180.960938 255.734375 181.117188 257.683594 181.535156 259.574219 C 181.78125 260.6875 182.25 261.777344 182.789062 262.789062 C 183.140625 263.445312 183.855469 263.867188 184.691406 263.644531 C 185.523438 263.429688 185.902344 262.75 185.96875 261.980469 C 186.03125 261.246094 185.988281 260.484375 185.839844 259.761719 C 185.183594 256.550781 184.46875 253.351562 183.773438 250.144531 Z M 166.539062 150.320312 C 165.75 145.648438 165.183594 142.171875 164.5625 138.703125 C 164.417969 137.890625 164.207031 137.035156 163.796875 136.34375 C 163.527344 135.894531 162.816406 135.445312 162.328125 135.464844 C 161.832031 135.484375 161.152344 135.996094 160.9375 136.464844 C 160.636719 137.136719 160.527344 137.984375 160.613281 138.722656 C 160.871094 140.972656 161.164062 143.226562 161.613281 145.445312 C 162.589844 150.296875 163.664062 155.128906 164.714844 159.964844 C 164.867188 160.65625 165.070312 161.351562 165.363281 161.996094 C 165.695312 162.71875 166.296875 163.195312 167.148438 163.042969 C 167.960938 162.902344 168.390625 162.261719 168.445312 161.519531 C 168.511719 160.699219 168.453125 159.847656 168.296875 159.042969 C 167.664062 155.730469 166.96875 152.429688 166.539062 150.320312 Z M 174.472656 203.484375 C 175.425781 203.128906 176.761719 202.695312 178.035156 202.125 C 180.398438 201.070312 182.6875 199.832031 185.082031 198.851562 C 189.601562 196.996094 194.164062 195.246094 198.722656 193.503906 C 200.167969 192.949219 201.691406 192.601562 203.144531 192.066406 C 203.585938 191.902344 203.90625 191.417969 204.28125 191.085938 C 203.808594 190.9375 203.296875 190.589844 202.871094 190.675781 C 200.5625 191.148438 198.246094 191.632812 195.984375 192.292969 C 193.070312 193.140625 190.234375 194.28125 187.300781 195.074219 C 183.269531 196.171875 179.179688 197.066406 175.109375 198.015625 C 174.863281 198.070312 174.457031 197.949219 174.289062 197.761719 C 171.316406 194.488281 168.660156 190.960938 166.40625 187.15625 C 163.753906 182.683594 161.222656 178.128906 158.667969 173.59375 C 158.1875 172.738281 157.882812 171.792969 157.4375 170.921875 C 156.921875 169.917969 156.367188 168.933594 155.761719 167.980469 C 155.605469 167.734375 155.195312 167.652344 154.902344 167.492188 C 154.8125 167.820312 154.578125 168.1875 154.652344 168.46875 C 155.003906 169.695312 155.328125 170.949219 155.867188 172.09375 C 157.800781 176.179688 159.828125 180.226562 161.804688 184.289062 C 164.074219 188.949219 166.289062 193.636719 168.617188 198.261719 C 169.335938 199.6875 170.304688 201 171.261719 202.289062 C 171.929688 203.183594 172.894531 203.671875 174.472656 203.484375 Z M 180.757812 269.46875 C 173.53125 270.597656 166.320312 270.664062 159.121094 269.605469 C 151.242188 268.445312 143.753906 265.992188 136.703125 262.273438 C 132.996094 260.324219 129.5 258.03125 126.21875 255.445312 C 117.914062 248.878906 111.320312 240.882812 106.621094 231.378906 C 104.761719 227.617188 103.203125 223.726562 102.183594 219.640625 C 101.546875 217.074219 100.78125 214.519531 100.382812 211.914062 C 98.949219 202.496094 99.179688 193.132812 101.460938 183.835938 C 103.058594 177.332031 105.515625 171.179688 108.859375 165.398438 C 111.472656 160.867188 114.601562 156.703125 118.160156 152.855469 C 121.410156 149.335938 124.953125 146.160156 128.816406 143.339844 C 133.589844 139.859375 138.816406 137.203125 144.394531 135.292969 C 147.558594 134.207031 150.828125 133.40625 154.066406 132.542969 C 155.589844 132.136719 157.144531 131.773438 158.707031 131.601562 C 160.828125 131.371094 162.972656 131.3125 165.109375 131.238281 C 167.480469 131.152344 169.855469 131.113281 172.230469 131.082031 C 176.121094 131.03125 179.945312 131.648438 183.734375 132.457031 C 189.988281 133.785156 195.964844 135.921875 201.578125 138.957031 C 204.84375 140.726562 208.042969 142.683594 211.039062 144.875 C 216.109375 148.578125 220.484375 153.039062 224.355469 158.003906 C 227.953125 162.617188 230.90625 167.605469 233.199219 172.964844 C 234.363281 175.683594 235.285156 178.523438 236.132812 181.367188 C 236.878906 183.867188 237.589844 186.417969 237.925781 188.996094 C 238.421875 192.789062 238.726562 196.625 238.820312 200.445312 C 239.011719 207.929688 237.699219 215.21875 235.382812 222.320312 C 233.835938 227.0625 231.851562 231.628906 229.210938 235.871094 C 227.542969 238.554688 225.816406 241.21875 223.90625 243.730469 C 220.660156 247.984375 216.875 251.726562 212.675781 255.0625 C 209.253906 257.78125 205.617188 260.164062 201.761719 262.199219 C 197.703125 264.34375 193.496094 266.152344 189.054688 267.355469 C 186.300781 268.101562 183.523438 268.765625 180.757812 269.46875 " fill-opacity="1" fill-rule="nonzero"/></g></g></g></g><g clip-path="url(#e73d658659)"><g clip-path="url(#dd20810179)"><g clip-path="url(#d91471feb5)"><g clip-path="url(#c73aea5038)"><g clip-path="url(#d3ef88c583)"><path fill="#5e7683" d="M 121.550781 114.898438 C 121.074219 115.484375 121.085938 116.144531 121.511719 116.707031 C 121.972656 117.316406 122.746094 117.542969 123.339844 117.078125 C 124.179688 116.417969 124.921875 115.597656 125.578125 114.746094 C 125.808594 114.453125 125.785156 113.800781 125.617188 113.433594 C 125.523438 113.234375 124.882812 113.289062 124.65625 113.253906 C 123.371094 113.617188 122.308594 113.976562 121.550781 114.898438 Z M 160.742188 95.550781 C 159.890625 90.105469 159.042969 84.660156 158.179688 79.113281 C 158.742188 79.019531 159.207031 78.945312 159.671875 78.863281 C 164.171875 78.066406 168.660156 77.21875 172.992188 75.707031 C 174.542969 75.171875 175.3125 74.1875 175.152344 72.640625 C 174.976562 70.921875 174.777344 69.195312 174.472656 67.496094 C 174.230469 66.121094 173.882812 64.75 172.839844 63.699219 C 172.601562 65.019531 172.4375 66.355469 172.117188 67.648438 C 171.523438 70.039062 169.671875 71.453125 167.886719 72.925781 C 165.234375 75.117188 162.125 76.269531 158.828125 76.984375 C 155.183594 77.773438 151.515625 78.460938 147.855469 79.195312 C 143.761719 80.023438 139.664062 80.855469 135.570312 81.6875 C 135.078125 81.789062 134.554688 81.882812 134.117188 82.109375 C 133.796875 82.28125 133.59375 82.675781 133.339844 82.96875 C 133.808594 82.953125 134.292969 82.988281 134.75 82.910156 C 137.429688 82.445312 140.101562 81.945312 142.777344 81.476562 C 143.835938 81.292969 144.898438 81.148438 145.960938 80.988281 C 149.6875 80.359375 153.417969 79.730469 157.125 79.105469 C 157.875 82.9375 156.871094 86.164062 155.101562 89.234375 C 153.554688 91.917969 151.378906 94.015625 148.984375 95.921875 C 149.105469 96.4375 149.230469 96.949219 149.355469 97.464844 C 153.148438 96.824219 156.945312 96.1875 160.742188 95.550781 Z M 81.433594 230.332031 C 83.027344 235.40625 84.925781 240.34375 87.480469 245.019531 C 91.144531 251.71875 95.359375 258.03125 100.253906 263.898438 C 105.914062 270.691406 112.292969 276.726562 119.382812 282 C 124.925781 286.121094 130.835938 289.644531 137.074219 292.632812 C 145.476562 296.652344 154.257812 299.472656 163.421875 301.09375 C 169.546875 302.175781 175.726562 302.632812 181.945312 302.507812 C 183.789062 302.472656 185.652344 302.417969 187.464844 302.121094 C 190.316406 301.65625 191.773438 298.800781 190.582031 296.296875 C 189.824219 294.699219 187.851562 293.898438 185.53125 293.957031 C 181.605469 294.050781 177.664062 294.179688 173.75 293.964844 C 165.589844 293.507812 157.683594 291.71875 149.980469 289.015625 C 142.535156 286.40625 135.492188 282.957031 128.976562 278.535156 C 125.230469 275.996094 121.65625 273.175781 118.167969 270.285156 C 112.835938 265.878906 108.195312 260.777344 103.996094 255.292969 C 96.8125 245.90625 91.3125 235.570312 87.164062 224.550781 C 85.347656 219.71875 84.097656 214.652344 82.902344 209.613281 C 81.585938 204.058594 81.269531 198.359375 81.230469 192.644531 C 81.171875 184.992188 82.152344 177.460938 83.847656 170.027344 C 85.425781 163.082031 87.675781 156.339844 91.035156 150.027344 C 92.390625 147.476562 93.808594 144.9375 95.433594 142.5625 C 97.121094 140.105469 99.109375 137.859375 100.941406 135.503906 C 102.351562 133.6875 103.628906 131.757812 105.148438 130.039062 C 108.292969 126.476562 112.46875 124.117188 116.027344 121.035156 C 116.457031 120.660156 116.875 120.351562 116.492188 119.816406 C 116.128906 119.304688 115.613281 119.441406 115.160156 119.800781 C 114.972656 119.949219 114.792969 120.109375 114.589844 120.230469 C 112.035156 121.746094 109.71875 123.554688 107.636719 125.683594 C 106.386719 126.960938 105.070312 128.191406 103.675781 129.304688 C 100.492188 131.855469 97.511719 134.605469 95.195312 137.988281 C 93.664062 140.226562 92.292969 142.578125 90.773438 144.828125 C 86.929688 150.523438 83.917969 156.632812 81.488281 163.046875 C 78.597656 170.667969 76.949219 178.558594 76.25 186.660156 C 75.414062 196.320312 76.175781 205.894531 77.652344 215.441406 C 78.449219 220.523438 79.898438 225.4375 81.433594 230.332031 Z M 61.378906 104.917969 C 61.332031 105.039062 61.289062 105.164062 61.242188 105.285156 C 61.289062 105.164062 61.332031 105.039062 61.378906 104.917969 Z M 93.597656 130.996094 C 95.046875 129.507812 96.503906 128.023438 97.953125 126.535156 C 97.324219 125.859375 96.691406 125.183594 96.054688 124.503906 C 95.648438 124.824219 95.195312 125.101562 94.839844 125.464844 C 93.695312 126.640625 92.585938 127.847656 91.460938 129.042969 C 92.171875 129.691406 92.886719 130.347656 93.597656 130.996094 Z M 237.605469 67.023438 C 238.308594 67.320312 239.007812 67.625 239.714844 67.910156 C 241.1875 68.503906 242.664062 69.085938 244.136719 69.667969 C 244.636719 68.683594 245.136719 67.695312 245.632812 66.703125 C 245.332031 66.535156 245.054688 66.308594 244.730469 66.203125 C 242.851562 65.582031 240.964844 64.992188 239.078125 64.390625 C 238.589844 65.269531 238.097656 66.148438 237.605469 67.023438 Z M 218.953125 105.101562 C 219.488281 105.4375 220.003906 105.8125 220.566406 106.101562 C 222.007812 106.839844 223.464844 107.542969 224.917969 108.257812 C 225.417969 107.191406 225.914062 106.128906 226.414062 105.0625 C 224.378906 104.132812 222.347656 103.203125 220.316406 102.269531 C 219.863281 103.214844 219.40625 104.15625 218.953125 105.101562 Z M 58.542969 88.507812 C 56.726562 87.558594 55.179688 88.816406 55.429688 90.867188 C 55.476562 91.273438 55.585938 91.699219 55.78125 92.054688 C 56.265625 92.933594 56.8125 93.777344 57.335938 94.636719 C 59.082031 93.5625 60.824219 92.484375 62.570312 91.410156 C 61.234375 90.425781 59.992188 89.265625 58.542969 88.507812 Z M 63.828125 102.140625 C 64.199219 101.855469 64.578125 101.585938 64.929688 101.285156 C 66.332031 100.113281 67.730469 98.929688 69.128906 97.75 C 68.207031 96.816406 67.285156 95.882812 66.363281 94.949219 C 66.074219 95.09375 65.765625 95.203125 65.507812 95.382812 C 64.359375 96.171875 63.222656 96.972656 62.089844 97.785156 C 61.667969 98.089844 61.273438 98.433594 60.867188 98.757812 C 61.851562 99.886719 62.84375 101.011719 63.828125 102.140625 Z M 249.171875 58.957031 C 249.4375 58.210938 249.628906 57.410156 249.6875 56.625 C 249.769531 55.589844 249.210938 55.03125 248.214844 54.84375 C 247.011719 54.617188 245.976562 55.015625 245.226562 55.871094 C 243.898438 57.390625 242.683594 59.003906 241.421875 60.582031 C 242.816406 61.050781 244.199219 61.5625 245.609375 61.980469 C 246.308594 62.183594 247.050781 62.222656 247.777344 62.335938 C 248.25 61.210938 248.769531 60.101562 249.171875 58.957031 Z M 239.792969 295.695312 C 244.851562 298.6875 249.914062 301.679688 254.980469 304.664062 C 256.839844 305.761719 258.859375 306.257812 260.996094 305.953125 C 263.53125 305.589844 266.078125 305.183594 268.566406 304.589844 C 269.871094 304.28125 271.15625 303.65625 272.292969 302.933594 C 273.765625 301.996094 274.050781 300.761719 273.453125 299.109375 C 273.253906 298.550781 272.996094 298.003906 272.683594 297.5 C 271.65625 295.820312 270.671875 294.105469 269.523438 292.511719 C 264.921875 286.125 260.28125 279.765625 255.613281 273.429688 C 254.988281 272.582031 254.101562 271.925781 253.335938 271.179688 C 253.082031 271.382812 252.789062 271.546875 252.578125 271.785156 C 246.6875 278.457031 240.003906 284.230469 232.683594 289.28125 C 232.121094 289.664062 231.578125 290.078125 231.027344 290.476562 C 233.949219 292.21875 236.867188 293.960938 239.792969 295.695312 Z M 120.402344 297.613281 C 118.363281 304.914062 116.339844 312.21875 114.3125 319.523438 C 113.578125 322.167969 112.746094 324.785156 112.113281 327.457031 C 111.585938 329.675781 112.515625 330.828125 114.761719 331.222656 C 117.382812 331.683594 119.921875 331.0625 122.5 330.808594 C 127.007812 330.367188 130.382812 328.148438 133.175781 324.761719 C 137.019531 320.113281 140.941406 315.523438 144.746094 310.839844 C 146.359375 308.855469 147.757812 306.691406 149.253906 304.613281 C 149.144531 304.570312 149.039062 304.511719 148.929688 304.484375 C 139.722656 302.316406 130.984375 298.929688 122.652344 294.464844 C 122.300781 294.277344 121.90625 294.171875 121.527344 294.027344 C 121.152344 295.222656 120.738281 296.40625 120.402344 297.613281 Z M 60.558594 105.886719 C 57.609375 109.542969 55.648438 113.707031 54.101562 118.109375 C 50.605469 128.070312 49.824219 138.03125 53.90625 148.039062 C 54.925781 150.542969 56.132812 152.921875 57.953125 154.953125 C 58.546875 154.894531 59.144531 154.886719 59.730469 154.78125 C 62.148438 154.34375 64.316406 153.304688 66.328125 151.917969 C 71.902344 148.078125 76.199219 142.9375 80.597656 137.902344 C 83.71875 134.332031 86.792969 130.714844 89.917969 127.148438 C 94.578125 121.828125 99.265625 116.53125 103.929688 111.214844 C 104.382812 110.699219 104.863281 110.152344 105.101562 109.535156 C 105.269531 109.082031 105.222656 108.378906 104.964844 107.984375 C 104.613281 107.433594 103.929688 107.457031 103.367188 107.832031 C 102.917969 108.125 102.480469 108.445312 102.082031 108.800781 C 97.347656 113.039062 92.679688 117.363281 87.867188 121.515625 C 83.078125 125.65625 78.109375 129.574219 72.617188 132.789062 C 70.6875 133.917969 68.75 134.042969 66.679688 133.523438 C 63.019531 132.601562 61.328125 129.832031 60.519531 126.507812 C 59.230469 121.214844 59.0625 115.816406 59.871094 110.429688 C 60.132812 108.679688 60.777344 106.988281 61.246094 105.269531 C 61.015625 105.476562 60.746094 105.652344 60.558594 105.886719 Z M 265.457031 115.617188 C 263.59375 115.226562 261.671875 115.015625 259.875 114.417969 C 255.433594 112.945312 250.929688 111.5625 246.660156 109.664062 C 236.816406 105.285156 227.085938 100.652344 217.335938 96.0625 C 213.558594 94.285156 209.835938 92.386719 206.125 90.472656 C 204.511719 89.636719 202.980469 88.640625 201.425781 87.6875 C 200.394531 87.050781 200.015625 86.511719 199.84375 85.371094 C 200.628906 85.582031 201.40625 85.617188 201.980469 85.972656 C 206.882812 89.027344 212.296875 90.957031 217.671875 92.910156 C 225.371094 95.703125 233.261719 97.859375 241.363281 99.144531 C 243.992188 99.558594 246.621094 99.804688 249.273438 99.234375 C 253.222656 98.386719 254.890625 94.894531 253.015625 91.3125 C 251.261719 87.949219 248.679688 85.285156 245.652344 83.128906 C 242.109375 80.601562 238.347656 78.386719 234.71875 75.976562 C 233.359375 75.070312 232.015625 74.097656 230.84375 72.96875 C 229.394531 71.582031 230.019531 69.773438 232.011719 69.417969 C 234.109375 69.042969 236.160156 69.507812 238.03125 70.382812 C 240.835938 71.695312 243.636719 73.066406 246.257812 74.703125 C 251.667969 78.082031 256.675781 81.988281 261.039062 86.679688 C 261.582031 87.265625 262.132812 87.847656 262.679688 88.433594 C 263.605469 91.035156 264.640625 93.609375 265.433594 96.25 C 266.65625 100.300781 266.140625 104.46875 265.992188 108.601562 C 265.921875 110.625 265.773438 112.644531 265.644531 114.664062 C 265.625 114.984375 265.523438 115.300781 265.457031 115.617188 " fill-opacity="1" fill-rule="nonzero"/></g></g></g></g></g><g clip-path="url(#20240be817)"><g clip-path="url(#9e40dcd9aa)"><g clip-path="url(#6433143329)"><g clip-path="url(#b1ec361ab3)"><path fill="#161310" d="M 229.515625 218.855469 C 229.578125 218.496094 229.351562 217.960938 229.066406 217.699219 C 228.597656 217.269531 228.019531 216.871094 227.414062 216.667969 C 223.546875 215.375 219.671875 214.109375 215.777344 212.910156 C 214.941406 212.652344 214.011719 212.648438 213.125 212.644531 C 212.460938 212.636719 211.886719 212.988281 211.78125 213.71875 C 211.671875 214.4375 212.085938 214.898438 212.71875 215.175781 C 213.015625 215.308594 213.324219 215.425781 213.640625 215.511719 C 214.902344 215.863281 216.179688 216.171875 217.433594 216.546875 C 220.3125 217.40625 223.179688 218.320312 226.066406 219.160156 C 226.851562 219.390625 227.695312 219.441406 228.558594 219.582031 C 228.929688 219.320312 229.46875 219.128906 229.515625 218.855469 Z M 224.640625 189.761719 C 222.964844 190.046875 221.289062 190.324219 219.613281 190.613281 C 218.703125 190.773438 217.78125 190.894531 216.894531 191.144531 C 215.742188 191.46875 215.230469 192.214844 215.382812 193.132812 C 215.539062 194.058594 216.359375 194.609375 217.554688 194.539062 C 218.449219 194.488281 219.351562 194.453125 220.226562 194.285156 C 224.296875 193.503906 228.359375 192.683594 232.425781 191.863281 C 232.800781 191.785156 233.175781 191.648438 233.515625 191.476562 C 234.097656 191.179688 234.597656 190.753906 234.503906 190.027344 C 234.417969 189.285156 233.816406 188.996094 233.175781 188.914062 C 232.589844 188.84375 231.976562 188.84375 231.394531 188.9375 C 229.15625 189.285156 226.925781 189.679688 224.691406 190.054688 C 224.675781 189.957031 224.65625 189.859375 224.640625 189.761719 Z M 209.632812 241.925781 C 207.179688 238.410156 204.699219 234.917969 202.199219 231.429688 C 201.859375 230.953125 201.414062 230.527344 200.957031 230.160156 C 200.394531 229.707031 199.730469 229.664062 199.121094 230.066406 C 198.5 230.472656 198.351562 231.121094 198.511719 231.804688 C 198.613281 232.234375 198.800781 232.65625 199.019531 233.039062 C 201.257812 236.988281 203.671875 240.8125 206.851562 244.085938 C 207.363281 244.617188 207.945312 245.140625 208.597656 245.445312 C 209.066406 245.667969 209.8125 245.71875 210.242188 245.488281 C 210.5625 245.320312 210.578125 244.578125 210.722656 244.097656 C 210.328125 243.292969 210.066406 242.550781 209.632812 241.925781 Z M 152.78125 257.035156 C 153.285156 257.105469 154.007812 256.664062 154.398438 256.226562 C 154.898438 255.667969 155.277344 254.933594 155.503906 254.210938 C 156.410156 251.34375 157.269531 248.457031 158.074219 245.558594 C 158.597656 243.664062 159.023438 241.742188 159.425781 239.816406 C 159.675781 238.621094 159.238281 237.804688 158.363281 237.5625 C 157.445312 237.304688 156.671875 237.816406 156.269531 239.035156 C 155.898438 240.164062 155.59375 241.320312 155.253906 242.460938 C 154.207031 245.972656 153.136719 249.476562 152.128906 252.996094 C 151.894531 253.8125 151.886719 254.695312 151.753906 255.710938 C 152.078125 256.160156 152.375 256.976562 152.78125 257.035156 Z M 126.292969 237.539062 C 129.917969 234.875 133.550781 232.21875 137.121094 229.484375 C 138 228.808594 138.699219 227.871094 139.40625 226.992188 C 139.640625 226.707031 139.640625 226.230469 139.75 225.839844 C 139.335938 225.730469 138.925781 225.597656 138.507812 225.53125 C 138.3125 225.496094 138.078125 225.550781 137.894531 225.636719 C 136.753906 226.136719 135.527344 226.515625 134.503906 227.199219 C 130.96875 229.566406 127.5 232.035156 124.023438 234.496094 C 123.53125 234.851562 123.097656 235.347656 122.765625 235.863281 C 122.386719 236.453125 122.367188 237.191406 122.894531 237.683594 C 123.328125 238.09375 123.964844 238.289062 124.457031 238.550781 C 125.207031 238.144531 125.796875 237.90625 126.292969 237.539062 Z M 142.070312 173.214844 C 141.996094 172.957031 141.957031 172.679688 141.84375 172.445312 C 141.625 171.992188 141.417969 171.511719 141.109375 171.117188 C 137.882812 167.023438 134.640625 162.945312 131.394531 158.863281 C 131.265625 158.707031 131.101562 158.566406 130.9375 158.441406 C 130.265625 157.921875 129.554688 157.71875 128.796875 158.238281 C 128.140625 158.683594 127.902344 159.558594 128.269531 160.40625 C 128.515625 160.972656 128.8125 161.546875 129.199219 162.027344 C 132.199219 165.808594 135.214844 169.578125 138.265625 173.320312 C 138.722656 173.882812 139.328125 174.40625 139.976562 174.71875 C 140.46875 174.960938 141.269531 175.0625 141.691406 174.816406 C 142.054688 174.609375 142.078125 173.8125 142.25 173.277344 C 142.1875 173.257812 142.128906 173.234375 142.070312 173.214844 Z M 112.070312 210.8125 C 110.839844 211.160156 109.632812 211.613281 108.457031 212.109375 C 107.71875 212.421875 107.257812 213.0625 107.441406 213.914062 C 107.625 214.769531 108.339844 215.09375 109.128906 215.109375 C 109.777344 215.128906 110.449219 215.058594 111.082031 214.898438 C 115.570312 213.773438 120.0625 212.65625 124.527344 211.441406 C 125.746094 211.109375 126.910156 210.515625 128.035156 209.921875 C 128.613281 209.617188 129.023438 209.015625 128.835938 208.265625 C 128.652344 207.507812 128.007812 207.222656 127.347656 207.183594 C 126.460938 207.128906 125.570312 207.242188 125.0625 207.265625 C 120.476562 208.511719 116.265625 209.632812 112.070312 210.8125 Z M 210.488281 176.132812 C 211.621094 175.558594 212.882812 175.144531 213.867188 174.378906 C 217.707031 171.402344 221.46875 168.316406 225.246094 165.261719 C 225.566406 165 225.832031 164.660156 226.066406 164.320312 C 226.453125 163.765625 226.550781 163.160156 226.136719 162.566406 C 225.722656 161.972656 225.097656 161.816406 224.46875 162.058594 C 223.753906 162.335938 223.054688 162.691406 222.421875 163.125 C 219.957031 164.804688 217.5 166.5 215.078125 168.238281 C 213.601562 169.300781 212.097656 170.351562 210.796875 171.609375 C 209.90625 172.472656 209.246094 173.625 208.675781 174.75 C 208.28125 175.515625 208.710938 175.984375 209.59375 176.023438 C 209.859375 176.03125 210.125 175.980469 210.394531 175.957031 C 210.425781 176.015625 210.457031 176.074219 210.488281 176.132812 Z M 133.820312 190.6875 C 133.546875 190.257812 133.359375 189.714844 132.984375 189.417969 C 131.910156 188.582031 130.835938 187.671875 129.621094 187.089844 C 124.988281 184.894531 120.046875 183.613281 115.074219 182.453125 C 114.535156 182.328125 113.90625 182.238281 113.398438 182.386719 C 112.917969 182.53125 112.316406 182.941406 112.183594 183.367188 C 112.050781 183.792969 112.308594 184.476562 112.621094 184.867188 C 112.953125 185.28125 113.515625 185.589844 114.035156 185.761719 C 119.074219 187.425781 124.101562 189.121094 129.179688 190.652344 C 130.5625 191.070312 132.105469 190.960938 133.574219 191.097656 C 133.65625 190.960938 133.738281 190.820312 133.820312 190.6875 Z M 194.746094 168.027344 C 195.433594 168.410156 196.101562 167.953125 196.554688 167.421875 C 196.996094 166.90625 197.40625 166.324219 197.648438 165.699219 C 198.386719 163.78125 199.035156 161.828125 199.730469 159.894531 C 200.957031 156.46875 202.203125 153.054688 203.421875 149.625 C 203.628906 149.039062 203.78125 148.417969 203.855469 147.800781 C 203.945312 147.03125 203.65625 146.378906 202.917969 146.03125 C 202.167969 145.679688 201.472656 145.890625 200.972656 146.476562 C 200.515625 147.011719 200.074219 147.617188 199.820312 148.269531 C 197.902344 153.121094 196.003906 157.980469 194.179688 162.867188 C 193.761719 163.992188 193.667969 165.234375 193.386719 166.597656 C 193.855469 167.109375 194.210938 167.730469 194.746094 168.027344 Z M 183.929688 250.109375 C 183.800781 249.042969 183.6875 247.972656 183.539062 246.910156 C 183.386719 245.816406 183.234375 244.71875 183.007812 243.640625 C 182.847656 242.859375 182.625 242.070312 182.3125 241.335938 C 181.769531 240.0625 180.886719 239.542969 179.828125 239.753906 C 178.808594 239.957031 178.097656 240.863281 178.183594 242.199219 C 178.269531 243.53125 178.511719 244.859375 178.792969 246.167969 C 179.351562 248.730469 180.035156 251.269531 180.570312 253.839844 C 180.960938 255.734375 181.117188 257.683594 181.535156 259.574219 C 181.78125 260.6875 182.25 261.777344 182.789062 262.789062 C 183.140625 263.445312 183.855469 263.867188 184.691406 263.644531 C 185.523438 263.429688 185.902344 262.75 185.96875 261.980469 C 186.03125 261.246094 185.988281 260.484375 185.839844 259.761719 C 185.183594 256.550781 184.46875 253.351562 183.773438 250.144531 C 183.828125 250.132812 183.878906 250.121094 183.929688 250.109375 Z M 164.5625 138.703125 C 164.417969 137.890625 164.207031 137.035156 163.796875 136.34375 C 163.527344 135.894531 162.816406 135.445312 162.328125 135.464844 C 161.832031 135.484375 161.152344 135.996094 160.9375 136.464844 C 160.636719 137.136719 160.527344 137.984375 160.613281 138.722656 C 160.871094 140.972656 161.164062 143.226562 161.613281 145.445312 C 162.589844 150.296875 163.664062 155.128906 164.714844 159.964844 C 164.867188 160.65625 165.070312 161.351562 165.363281 161.996094 C 165.695312 162.71875 166.296875 163.195312 167.148438 163.042969 C 167.960938 162.902344 168.390625 162.261719 168.445312 161.519531 C 168.511719 160.699219 168.453125 159.847656 168.296875 159.042969 C 167.664062 155.730469 166.96875 152.429688 166.539062 150.320312 C 165.75 145.648438 165.183594 142.171875 164.5625 138.703125 Z M 174.472656 203.484375 C 172.894531 203.671875 171.929688 203.183594 171.261719 202.289062 C 170.304688 201 169.335938 199.6875 168.617188 198.261719 C 166.289062 193.636719 164.074219 188.949219 161.804688 184.289062 C 159.828125 180.226562 157.800781 176.179688 155.867188 172.09375 C 155.328125 170.949219 155.003906 169.695312 154.652344 168.46875 C 154.578125 168.1875 154.8125 167.820312 154.902344 167.492188 C 155.195312 167.652344 155.605469 167.734375 155.761719 167.980469 C 156.367188 168.933594 156.921875 169.917969 157.4375 170.921875 C 157.882812 171.792969 158.1875 172.738281 158.667969 173.59375 C 161.222656 178.128906 163.753906 182.683594 166.40625 187.15625 C 168.660156 190.960938 171.316406 194.488281 174.289062 197.761719 C 174.457031 197.949219 174.863281 198.070312 175.109375 198.015625 C 179.179688 197.066406 183.269531 196.171875 187.300781 195.074219 C 190.234375 194.28125 193.070312 193.140625 195.984375 192.292969 C 198.246094 191.632812 200.5625 191.148438 202.871094 190.675781 C 203.296875 190.589844 203.808594 190.9375 204.28125 191.085938 C 203.90625 191.417969 203.585938 191.902344 203.144531 192.066406 C 201.691406 192.601562 200.167969 192.949219 198.722656 193.503906 C 194.164062 195.246094 189.601562 196.996094 185.082031 198.851562 C 182.6875 199.832031 180.398438 201.070312 178.035156 202.125 C 176.761719 202.695312 175.425781 203.128906 174.472656 203.484375 " fill-opacity="1" fill-rule="nonzero"/></g></g></g></g><g clip-path="url(#625a042d47)"><g clip-path="url(#ca8fa5eeaa)"><g clip-path="url(#19ebc5e6d0)"><g clip-path="url(#42b0e68df8)"><path fill="#f3aa99" d="M 148.246094 93.550781 C 148.398438 94.359375 148.734375 95.132812 148.984375 95.921875 C 151.378906 94.015625 153.554688 91.917969 155.101562 89.234375 C 156.871094 86.164062 157.875 82.9375 157.125 79.105469 C 153.417969 79.730469 149.6875 80.359375 145.960938 80.988281 C 146.71875 85.175781 147.457031 89.367188 148.246094 93.550781 Z M 168.566406 61.597656 C 166.554688 61.546875 164.507812 61.585938 162.523438 61.890625 C 158.1875 62.554688 153.882812 63.402344 149.566406 64.195312 C 147.339844 64.605469 145.105469 64.992188 142.898438 65.5 C 138.605469 66.488281 134.328125 67.539062 130.054688 68.589844 C 128.253906 69.03125 127.546875 69.808594 127.625 71.691406 C 127.679688 73.128906 127.984375 74.582031 128.371094 75.972656 C 128.800781 77.511719 129.355469 79.035156 130.027344 80.480469 C 130.664062 81.835938 131.632812 82.949219 133.339844 82.96875 C 133.59375 82.675781 133.796875 82.28125 134.117188 82.109375 C 134.554688 81.882812 135.078125 81.789062 135.570312 81.6875 C 139.664062 80.855469 143.761719 80.023438 147.855469 79.195312 C 151.515625 78.460938 155.183594 77.773438 158.828125 76.984375 C 162.125 76.269531 165.234375 75.117188 167.886719 72.925781 C 169.671875 71.453125 171.523438 70.039062 172.117188 67.648438 C 172.4375 66.355469 172.601562 65.019531 172.839844 63.699219 C 171.734375 62.351562 170.246094 61.636719 168.566406 61.597656 Z M 62.570312 91.410156 C 65.015625 90.21875 67.082031 88.527344 69.015625 86.640625 C 71.648438 84.082031 74.273438 81.5 76.351562 78.457031 C 80.210938 72.804688 83.152344 66.75 84.039062 59.859375 C 84.085938 59.503906 84.21875 59.160156 84.257812 58.808594 C 84.46875 56.796875 85.605469 55.441406 87.378906 54.652344 C 90.8125 53.136719 94.199219 51.46875 97.746094 50.289062 C 102.882812 48.578125 108.132812 47.203125 113.355469 45.761719 C 117.921875 44.507812 122.5 43.292969 127.101562 42.175781 C 131.5625 41.089844 136.046875 40.105469 140.542969 39.179688 C 144.253906 38.417969 147.988281 37.722656 151.734375 37.160156 C 156.394531 36.457031 161.074219 35.882812 165.757812 35.328125 C 169.128906 34.929688 172.511719 34.550781 175.898438 34.351562 C 181.484375 34.027344 187.078125 33.863281 192.667969 33.621094 C 196.636719 33.449219 200.59375 33.523438 204.535156 34.054688 C 205.496094 34.1875 206.484375 34.425781 207.371094 34.816406 C 208.730469 35.414062 209.773438 36.351562 210.378906 37.828125 C 212.300781 42.519531 215.582031 46.222656 219.296875 49.546875 C 223.613281 53.410156 228.625 56.175781 233.996094 58.273438 C 236.21875 59.140625 238.53125 59.777344 240.804688 60.511719 C 240.996094 60.574219 241.214844 60.558594 241.421875 60.582031 C 242.816406 61.050781 244.199219 61.5625 245.609375 61.980469 C 246.308594 62.183594 247.050781 62.222656 247.777344 62.335938 C 248.367188 62.507812 248.953125 62.699219 249.546875 62.847656 C 250.238281 63.023438 250.960938 63.101562 251.628906 63.332031 C 253.070312 63.832031 253.863281 65.195312 253.527344 66.457031 C 253.207031 67.664062 251.976562 68.421875 250.46875 68.117188 C 249.34375 67.890625 248.28125 67.375 247.175781 67.027344 C 246.679688 66.871094 246.148438 66.8125 245.632812 66.703125 C 245.332031 66.535156 245.054688 66.308594 244.730469 66.203125 C 242.851562 65.582031 240.964844 64.992188 239.078125 64.390625 C 236.855469 63.527344 234.644531 62.621094 232.40625 61.796875 C 228.246094 60.265625 224.269531 58.402344 220.574219 55.921875 C 216.589844 53.25 213.234375 49.929688 210.222656 46.234375 C 208.6875 44.351562 207.253906 42.414062 206.585938 40.03125 C 206.453125 39.558594 206.191406 39.398438 205.695312 39.363281 C 204.867188 39.300781 204.046875 39.117188 203.222656 38.988281 C 201.695312 38.75 200.164062 38.308594 198.640625 38.316406 C 192.507812 38.347656 186.375 38.410156 180.25 38.671875 C 175.582031 38.871094 170.925781 39.339844 166.269531 39.785156 C 163.335938 40.0625 160.394531 40.414062 157.484375 40.90625 C 149.183594 42.3125 140.886719 43.785156 132.597656 45.277344 C 130.75 45.609375 128.933594 46.09375 127.117188 46.570312 C 123.632812 47.484375 120.15625 48.421875 116.683594 49.382812 C 113.414062 50.289062 110.144531 51.214844 106.890625 52.171875 C 100.933594 53.921875 95.25 56.40625 89.527344 58.773438 C 89.238281 58.894531 88.933594 59.277344 88.867188 59.585938 C 88.382812 61.921875 88.085938 64.300781 87.492188 66.601562 C 85.800781 73.15625 82.820312 79.089844 78.058594 83.933594 C 74.59375 87.464844 70.800781 90.667969 67.160156 94.027344 C 66.863281 94.304688 66.628906 94.640625 66.363281 94.949219 C 66.074219 95.09375 65.765625 95.203125 65.507812 95.382812 C 64.359375 96.171875 63.222656 96.972656 62.089844 97.785156 C 61.667969 98.089844 61.273438 98.433594 60.867188 98.757812 C 60.167969 99.089844 59.5 99.511719 58.769531 99.726562 C 57.679688 100.046875 56.53125 100.453125 55.429688 100.394531 C 53.679688 100.300781 52.972656 98.464844 54.109375 97.117188 C 54.671875 96.449219 55.46875 95.980469 56.171875 95.4375 C 56.542969 95.152344 56.945312 94.90625 57.335938 94.636719 C 59.082031 93.5625 60.824219 92.484375 62.570312 91.410156 " fill-opacity="1" fill-rule="nonzero"/></g></g></g></g></svg>