<svg xmlns="http://www.w3.org/2000/svg" xmlns:xlink="http://www.w3.org/1999/xlink" width="1080" zoomAndPan="magnify" viewBox="0 0 810 1012.49997" height="1350" preserveAspectRatio="xMidYMid meet" version="1.0"><defs><clipPath id="4695c18150"><path d="M 197 227 L 613 227 L 613 779.019531 L 197 779.019531 Z M 197 227 " clip-rule="nonzero"/></clipPath><clipPath id="1b3b824b32"><path d="M 314 155.328125 L 488 155.328125 L 488 275 L 314 275 Z M 314 155.328125 " clip-rule="nonzero"/></clipPath></defs><g clip-path="url(#4695c18150)"><path fill="#dedddd" d="M 612.175781 767.230469 C 612.175781 773.734375 606.921875 779.019531 600.425781 779.019531 L 208.996094 779.019531 C 202.5 779.019531 197.21875 773.734375 197.21875 767.230469 L 197.21875 238.835938 C 197.21875 232.304688 202.5 227.042969 208.996094 227.042969 L 600.425781 227.042969 C 606.921875 227.042969 612.175781 232.304688 612.175781 238.835938 L 612.175781 767.230469 " fill-opacity="1" fill-rule="nonzero"/></g><path fill="#c8c7c7" d="M 335.175781 389.972656 C 335.175781 393.210938 332.535156 395.855469 329.273438 395.855469 L 263.894531 395.855469 C 260.632812 395.855469 257.992188 393.210938 257.992188 389.972656 L 257.992188 328.402344 C 257.992188 325.160156 260.632812 322.519531 263.894531 322.519531 L 329.273438 322.519531 C 332.535156 322.519531 335.175781 325.160156 335.175781 328.402344 L 335.175781 389.972656 " fill-opacity="1" fill-rule="nonzero"/><path fill="#f9ad30" d="M 544.035156 346.472656 L 397.9375 346.472656 C 393.855469 346.472656 390.542969 343.183594 390.542969 339.09375 C 390.542969 335.007812 393.855469 331.691406 397.9375 331.691406 L 544.035156 331.691406 C 548.117188 331.691406 551.429688 335.007812 551.429688 339.09375 C 551.429688 343.183594 548.117188 346.472656 544.035156 346.472656 " fill-opacity="1" fill-rule="nonzero"/><path fill="#f9ad30" d="M 544.035156 386.683594 L 397.9375 386.683594 C 393.855469 386.683594 390.542969 383.367188 390.542969 379.277344 C 390.542969 375.191406 393.855469 371.898438 397.9375 371.898438 L 544.035156 371.898438 C 548.117188 371.898438 551.429688 375.191406 551.429688 379.277344 C 551.429688 383.367188 548.117188 386.683594 544.035156 386.683594 " fill-opacity="1" fill-rule="nonzero"/><path fill="#c8c7c7" d="M 335.175781 542.457031 C 335.175781 545.695312 332.535156 548.339844 329.273438 548.339844 L 263.894531 548.339844 C 260.632812 548.339844 257.992188 545.695312 257.992188 542.457031 L 257.992188 480.882812 C 257.992188 477.644531 260.632812 475 263.894531 475 L 329.273438 475 C 332.535156 475 335.175781 477.644531 335.175781 480.882812 L 335.175781 542.457031 " fill-opacity="1" fill-rule="nonzero"/><path fill="#f9ad30" d="M 544.035156 498.957031 L 397.9375 498.957031 C 393.855469 498.957031 390.542969 495.640625 390.542969 491.578125 C 390.542969 487.488281 393.855469 484.175781 397.9375 484.175781 L 544.035156 484.175781 C 548.117188 484.175781 551.429688 487.488281 551.429688 491.578125 C 551.429688 495.640625 548.117188 498.957031 544.035156 498.957031 " fill-opacity="1" fill-rule="nonzero"/><path fill="#f9ad30" d="M 544.035156 539.140625 L 397.9375 539.140625 C 393.855469 539.140625 390.542969 535.824219 390.542969 531.761719 C 390.542969 527.671875 393.855469 524.359375 397.9375 524.359375 L 544.035156 524.359375 C 548.117188 524.359375 551.429688 527.671875 551.429688 531.761719 C 551.429688 535.824219 548.117188 539.140625 544.035156 539.140625 " fill-opacity="1" fill-rule="nonzero"/><path fill="#c8c7c7" d="M 335.175781 694.914062 C 335.175781 698.179688 332.535156 700.796875 329.273438 700.796875 L 263.894531 700.796875 C 260.632812 700.796875 257.992188 698.179688 257.992188 694.914062 L 257.992188 633.367188 C 257.992188 630.101562 260.632812 627.457031 263.894531 627.457031 L 329.273438 627.457031 C 332.535156 627.457031 335.175781 630.101562 335.175781 633.367188 L 335.175781 694.914062 " fill-opacity="1" fill-rule="nonzero"/><path fill="#f9ad30" d="M 544.035156 651.4375 L 397.9375 651.4375 C 393.855469 651.4375 390.542969 648.125 390.542969 644.035156 C 390.542969 639.949219 393.855469 636.65625 397.9375 636.65625 L 544.035156 636.65625 C 548.117188 636.65625 551.429688 639.949219 551.429688 644.035156 C 551.429688 648.125 548.117188 651.4375 544.035156 651.4375 " fill-opacity="1" fill-rule="nonzero"/><path fill="#f9ad30" d="M 544.035156 691.621094 L 397.9375 691.621094 C 393.855469 691.621094 390.542969 688.308594 390.542969 684.246094 C 390.542969 680.15625 393.855469 676.839844 397.9375 676.839844 L 544.035156 676.839844 C 548.117188 676.839844 551.429688 680.15625 551.429688 684.246094 C 551.429688 688.308594 548.117188 691.621094 544.035156 691.621094 " fill-opacity="1" fill-rule="nonzero"/><g clip-path="url(#1b3b824b32)"><path fill="#c8c7c7" d="M 400.753906 227.042969 C 388.03125 227.042969 377.722656 216.699219 377.722656 203.988281 C 377.722656 191.25 388.03125 180.917969 400.753906 180.917969 C 413.476562 180.917969 423.78125 191.25 423.78125 203.988281 C 423.78125 216.699219 413.476562 227.042969 400.753906 227.042969 Z M 476.164062 209.320312 L 449.699219 209.320312 C 449.847656 207.75 449.949219 206.179688 449.949219 204.585938 C 449.949219 177.382812 427.914062 155.335938 400.753906 155.335938 C 373.613281 155.335938 351.582031 177.382812 351.582031 204.585938 C 351.582031 206.179688 351.65625 207.75 351.804688 209.320312 L 325.363281 209.320312 C 319.316406 209.320312 314.433594 214.207031 314.433594 220.265625 L 314.433594 264.039062 C 314.433594 270.070312 319.316406 274.957031 325.363281 274.957031 L 476.164062 274.957031 C 482.191406 274.957031 487.09375 270.070312 487.09375 264.039062 L 487.09375 220.265625 C 487.09375 214.207031 482.191406 209.320312 476.164062 209.320312 " fill-opacity="1" fill-rule="nonzero"/></g><path stroke-linecap="round" transform="matrix(0.248969, 0, 0, -0.249277, -124.597379, 997.137115)" fill="none" stroke-linejoin="round" d="M 1637.093306 2571.105538 L 1708.795224 2504.69482 L 1915.397161 2715.695366 " stroke="#339c50" stroke-width="40" stroke-opacity="1" stroke-miterlimit="10"/><path stroke-linecap="round" transform="matrix(0.248969, 0, 0, -0.249277, -124.597379, 997.137115)" fill="none" stroke-linejoin="round" d="M 1637.093306 1959.399832 L 1708.795224 1893.004785 L 1915.397161 2104.005331 " stroke="#339c50" stroke-width="40" stroke-opacity="1" stroke-miterlimit="10"/><path stroke-linecap="round" transform="matrix(0.248969, 0, 0, -0.249277, -124.597379, 997.137115)" fill="none" stroke-linejoin="round" d="M 1637.093306 1377.405009 L 1708.795224 1310.90027 L 1915.397161 1521.994838 " stroke="#339c50" stroke-width="40" stroke-opacity="1" stroke-miterlimit="10"/></svg>