<svg xmlns="http://www.w3.org/2000/svg" xmlns:xlink="http://www.w3.org/1999/xlink" width="500" zoomAndPan="magnify" viewBox="0 0 375 374.999991" height="500" preserveAspectRatio="xMidYMid meet" version="1.0"><defs><clipPath id="2ca2cdc4d3"><path d="M 63 57 L 288.625 57 L 288.625 356.25 L 63 356.25 Z M 63 57 " clip-rule="nonzero"/></clipPath><clipPath id="6d4e41e3c9"><path d="M 126 18.75 L 221 18.75 L 221 84 L 126 84 Z M 126 18.75 " clip-rule="nonzero"/></clipPath></defs><g clip-path="url(#2ca2cdc4d3)"><path fill="#dedddd" d="M 288.058594 349.871094 C 288.058594 353.390625 285.210938 356.25 281.691406 356.25 L 69.671875 356.25 C 66.152344 356.25 63.292969 353.390625 63.292969 349.871094 L 63.292969 63.9375 C 63.292969 60.40625 66.152344 57.558594 69.671875 57.558594 L 281.691406 57.558594 C 285.210938 57.558594 288.058594 60.40625 288.058594 63.9375 L 288.058594 349.871094 " fill-opacity="1" fill-rule="nonzero"/></g><path fill="#c8c7c7" d="M 138.015625 145.722656 C 138.015625 147.476562 136.585938 148.90625 134.820312 148.90625 L 99.40625 148.90625 C 97.640625 148.90625 96.210938 147.476562 96.210938 145.722656 L 96.210938 112.40625 C 96.210938 110.652344 97.640625 109.222656 99.40625 109.222656 L 134.820312 109.222656 C 136.585938 109.222656 138.015625 110.652344 138.015625 112.40625 L 138.015625 145.722656 " fill-opacity="1" fill-rule="nonzero"/><path fill="#f9ad30" d="M 251.148438 122.183594 L 172.015625 122.183594 C 169.800781 122.183594 168.007812 120.40625 168.007812 118.191406 C 168.007812 115.980469 169.800781 114.1875 172.015625 114.1875 L 251.148438 114.1875 C 253.359375 114.1875 255.152344 115.980469 255.152344 118.191406 C 255.152344 120.40625 253.359375 122.183594 251.148438 122.183594 " fill-opacity="1" fill-rule="nonzero"/><path fill="#f9ad30" d="M 251.148438 143.941406 L 172.015625 143.941406 C 169.800781 143.941406 168.007812 142.148438 168.007812 139.9375 C 168.007812 137.726562 169.800781 135.945312 172.015625 135.945312 L 251.148438 135.945312 C 253.359375 135.945312 255.152344 137.726562 255.152344 139.9375 C 255.152344 142.148438 253.359375 143.941406 251.148438 143.941406 " fill-opacity="1" fill-rule="nonzero"/><path fill="#c8c7c7" d="M 138.015625 228.238281 C 138.015625 229.992188 136.585938 231.421875 134.820312 231.421875 L 99.40625 231.421875 C 97.640625 231.421875 96.210938 229.992188 96.210938 228.238281 L 96.210938 194.917969 C 96.210938 193.164062 97.640625 191.734375 99.40625 191.734375 L 134.820312 191.734375 C 136.585938 191.734375 138.015625 193.164062 138.015625 194.917969 L 138.015625 228.238281 " fill-opacity="1" fill-rule="nonzero"/><path fill="#f9ad30" d="M 251.148438 204.699219 L 172.015625 204.699219 C 169.800781 204.699219 168.007812 202.90625 168.007812 200.707031 C 168.007812 198.492188 169.800781 196.699219 172.015625 196.699219 L 251.148438 196.699219 C 253.359375 196.699219 255.152344 198.492188 255.152344 200.707031 C 255.152344 202.90625 253.359375 204.699219 251.148438 204.699219 " fill-opacity="1" fill-rule="nonzero"/><path fill="#f9ad30" d="M 251.148438 226.441406 L 172.015625 226.441406 C 169.800781 226.441406 168.007812 224.648438 168.007812 222.449219 C 168.007812 220.238281 169.800781 218.445312 172.015625 218.445312 L 251.148438 218.445312 C 253.359375 218.445312 255.152344 220.238281 255.152344 222.449219 C 255.152344 224.648438 253.359375 226.441406 251.148438 226.441406 " fill-opacity="1" fill-rule="nonzero"/><path fill="#c8c7c7" d="M 138.015625 310.738281 C 138.015625 312.503906 136.585938 313.921875 134.820312 313.921875 L 99.40625 313.921875 C 97.640625 313.921875 96.210938 312.503906 96.210938 310.738281 L 96.210938 277.433594 C 96.210938 275.664062 97.640625 274.234375 99.40625 274.234375 L 134.820312 274.234375 C 136.585938 274.234375 138.015625 275.664062 138.015625 277.433594 L 138.015625 310.738281 " fill-opacity="1" fill-rule="nonzero"/><path fill="#f9ad30" d="M 251.148438 287.210938 L 172.015625 287.210938 C 169.800781 287.210938 168.007812 285.417969 168.007812 283.207031 C 168.007812 280.992188 169.800781 279.214844 172.015625 279.214844 L 251.148438 279.214844 C 253.359375 279.214844 255.152344 280.992188 255.152344 283.207031 C 255.152344 285.417969 253.359375 287.210938 251.148438 287.210938 " fill-opacity="1" fill-rule="nonzero"/><path fill="#f9ad30" d="M 251.148438 308.957031 L 172.015625 308.957031 C 169.800781 308.957031 168.007812 307.164062 168.007812 304.964844 C 168.007812 302.75 169.800781 300.957031 172.015625 300.957031 L 251.148438 300.957031 C 253.359375 300.957031 255.152344 302.75 255.152344 304.964844 C 255.152344 307.164062 253.359375 308.957031 251.148438 308.957031 " fill-opacity="1" fill-rule="nonzero"/><g clip-path="url(#6d4e41e3c9)"><path fill="#c8c7c7" d="M 173.539062 57.558594 C 166.644531 57.558594 161.0625 51.960938 161.0625 45.082031 C 161.0625 38.1875 166.644531 32.597656 173.539062 32.597656 C 180.429688 32.597656 186.011719 38.1875 186.011719 45.082031 C 186.011719 51.960938 180.429688 57.558594 173.539062 57.558594 Z M 214.386719 47.96875 L 200.050781 47.96875 C 200.132812 47.117188 200.183594 46.269531 200.183594 45.40625 C 200.183594 30.683594 188.25 18.753906 173.539062 18.753906 C 158.839844 18.753906 146.902344 30.683594 146.902344 45.40625 C 146.902344 46.269531 146.945312 47.117188 147.023438 47.96875 L 132.703125 47.96875 C 129.425781 47.96875 126.78125 50.613281 126.78125 53.890625 L 126.78125 77.578125 C 126.78125 80.839844 129.425781 83.484375 132.703125 83.484375 L 214.386719 83.484375 C 217.648438 83.484375 220.304688 80.839844 220.304688 77.578125 L 220.304688 53.890625 C 220.304688 50.613281 217.648438 47.96875 214.386719 47.96875 " fill-opacity="1" fill-rule="nonzero"/></g><path stroke-linecap="round" transform="matrix(0.134857, 0, 0, -0.134892, -111.024327, 474.280577)" fill="none" stroke-linejoin="round" d="M 1637.098486 2571.089578 L 1708.788964 2504.68812 L 1915.40237 2715.707493 " stroke="#339c50" stroke-width="40" stroke-opacity="1" stroke-miterlimit="10"/><path stroke-linecap="round" transform="matrix(0.134857, 0, 0, -0.134892, -111.024327, 474.280577)" fill="none" stroke-linejoin="round" d="M 1637.098486 1959.402706 L 1708.788964 1893.001248 L 1915.40237 2103.991664 " stroke="#339c50" stroke-width="40" stroke-opacity="1" stroke-miterlimit="10"/><path stroke-linecap="round" transform="matrix(0.134857, 0, 0, -0.134892, -111.024327, 474.280577)" fill="none" stroke-linejoin="round" d="M 1637.098486 1377.398126 L 1708.788964 1310.909794 L 1915.40237 1521.987084 " stroke="#339c50" stroke-width="40" stroke-opacity="1" stroke-miterlimit="10"/></svg>