<svg xmlns="http://www.w3.org/2000/svg" xmlns:xlink="http://www.w3.org/1999/xlink" width="500" zoomAndPan="magnify" viewBox="0 0 375 374.999991" height="500" preserveAspectRatio="xMidYMid meet" version="1.0"><defs><clipPath id="e746e1f9c7"><path d="M 38 169 L 181 169 L 181 311.570312 L 38 311.570312 Z M 38 169 " clip-rule="nonzero"/></clipPath><clipPath id="9184b52602"><path d="M 179 28.070312 L 322 28.070312 L 322 170 L 179 170 Z M 179 28.070312 " clip-rule="nonzero"/></clipPath></defs><g clip-path="url(#e746e1f9c7)"><path fill="#3abdc4" d="M 52.738281 239.757812 C 55.398438 239.757812 57.871094 239.058594 60.03125 237.828125 C 60.859375 237.355469 61.628906 236.800781 62.359375 236.183594 C 64.375 235.011719 67.378906 233.898438 69.9375 235.457031 L 69.9375 269.789062 C 69.9375 275.59375 74.640625 280.296875 80.441406 280.296875 L 115.207031 280.296875 C 116.25 282.554688 115.449219 285.058594 114.449219 286.914062 C 111.992188 289.546875 110.460938 293.078125 110.460938 296.980469 C 110.460938 305.097656 117.066406 311.6875 125.183594 311.6875 C 133.320312 311.6875 139.910156 305.097656 139.910156 296.980469 C 139.910156 294.320312 139.195312 291.832031 137.976562 289.675781 C 137.492188 288.847656 136.949219 288.074219 136.335938 287.359375 C 135.234375 285.472656 134.191406 282.726562 135.335938 280.296875 L 169.925781 280.296875 C 175.730469 280.296875 180.433594 275.59375 180.433594 269.792969 L 180.433594 235.457031 C 177.875 233.898438 174.871094 235.011719 172.859375 236.183594 C 172.144531 236.800781 171.355469 237.355469 170.527344 237.828125 C 168.382812 239.058594 165.894531 239.757812 163.238281 239.757812 C 155.101562 239.757812 148.511719 233.167969 148.511719 225.050781 C 148.511719 216.914062 155.101562 210.324219 163.238281 210.324219 C 167.125 210.324219 170.65625 211.839844 173.300781 214.300781 C 175.300781 215.371094 178.0625 216.242188 180.433594 214.785156 L 180.433594 180.292969 C 180.433594 174.503906 175.730469 169.800781 169.925781 169.800781 L 135.605469 169.800781 C 134.03125 172.359375 135.148438 175.359375 136.335938 177.375 C 136.949219 178.105469 137.492188 178.878906 137.976562 179.707031 C 139.195312 181.851562 139.910156 184.335938 139.910156 186.996094 C 139.910156 195.128906 133.320312 201.71875 125.183594 201.71875 C 117.066406 201.71875 110.460938 195.128906 110.460938 186.996094 C 110.460938 183.109375 111.992188 179.5625 114.449219 176.933594 C 115.523438 174.933594 116.378906 172.171875 114.921875 169.800781 L 80.441406 169.800781 C 74.640625 169.800781 69.9375 174.503906 69.9375 180.292969 L 69.9375 214.785156 C 67.5625 216.242188 64.804688 215.371094 62.804688 214.300781 C 60.171875 211.839844 56.628906 210.324219 52.738281 210.324219 C 44.605469 210.324219 38.015625 216.914062 38.015625 225.050781 C 38.015625 233.167969 44.605469 239.757812 52.738281 239.757812 " fill-opacity="1" fill-rule="nonzero"/></g><path fill="#f7b4a7" d="M 220.273438 152.519531 C 220.273438 155.175781 220.972656 157.664062 222.203125 159.808594 C 222.675781 160.636719 223.230469 161.421875 223.847656 162.136719 C 225.019531 164.152344 226.148438 167.15625 224.5625 169.714844 L 190.238281 169.714844 C 184.4375 169.714844 179.734375 174.417969 179.734375 180.222656 L 179.734375 214.984375 C 177.488281 216.027344 174.972656 215.226562 173.113281 214.226562 C 170.484375 211.769531 166.953125 210.253906 163.066406 210.253906 C 154.933594 210.253906 148.34375 216.84375 148.34375 224.964844 C 148.34375 233.097656 154.933594 239.6875 163.066406 239.6875 C 165.710938 239.6875 168.199219 238.984375 170.355469 237.757812 C 171.183594 237.269531 171.957031 236.726562 172.671875 236.113281 C 174.558594 235.011719 177.304688 233.96875 179.734375 235.113281 L 179.734375 269.71875 C 179.734375 275.523438 184.4375 280.226562 190.238281 280.226562 L 224.5625 280.226562 C 226.148438 277.652344 225.019531 274.652344 223.847656 272.636719 C 223.230469 271.921875 222.675781 271.148438 222.203125 270.320312 C 220.972656 268.160156 220.273438 265.675781 220.273438 263.015625 C 220.273438 254.882812 226.863281 248.292969 234.980469 248.292969 C 243.117188 248.292969 249.707031 254.882812 249.707031 263.015625 C 249.707031 266.902344 248.191406 270.449219 245.71875 273.078125 C 244.644531 275.082031 243.789062 277.839844 245.257812 280.226562 L 279.738281 280.226562 C 285.542969 280.226562 290.246094 275.523438 290.246094 269.71875 L 290.246094 235.382812 C 287.6875 233.8125 284.671875 234.925781 282.65625 236.113281 C 281.941406 236.726562 281.152344 237.269531 280.339844 237.757812 C 278.179688 238.984375 275.691406 239.6875 273.035156 239.6875 C 264.902344 239.6875 258.324219 233.097656 258.324219 224.964844 C 258.324219 216.84375 264.902344 210.253906 273.035156 210.253906 C 276.921875 210.253906 280.46875 211.769531 283.097656 214.226562 C 285.097656 215.300781 287.859375 216.171875 290.246094 214.699219 L 290.246094 180.222656 C 290.246094 174.417969 285.542969 169.714844 279.738281 169.714844 L 245.257812 169.714844 C 243.789062 167.339844 244.644531 164.582031 245.71875 162.582031 C 248.191406 159.953125 249.707031 156.40625 249.707031 152.519531 C 249.707031 144.382812 243.117188 137.792969 234.980469 137.792969 C 226.863281 137.792969 220.273438 144.382812 220.273438 152.519531 " fill-opacity="1" fill-rule="nonzero"/><g clip-path="url(#9184b52602)"><path fill="#143c3c" d="M 307.269531 99.984375 C 304.609375 99.984375 302.136719 100.6875 299.980469 101.914062 C 299.152344 102.386719 298.378906 102.945312 297.664062 103.558594 C 295.632812 104.730469 292.632812 105.859375 290.074219 104.273438 L 290.074219 69.953125 C 290.074219 64.148438 285.371094 59.445312 279.566406 59.445312 L 244.816406 59.445312 C 243.757812 57.203125 244.574219 54.683594 245.558594 52.828125 C 248.03125 50.195312 249.546875 46.667969 249.546875 42.765625 C 249.546875 34.644531 242.957031 28.054688 234.824219 28.054688 C 226.691406 28.054688 220.101562 34.644531 220.101562 42.765625 C 220.101562 45.421875 220.800781 47.910156 222.046875 50.066406 C 222.515625 50.898438 223.058594 51.667969 223.6875 52.382812 C 224.789062 54.269531 225.820312 57 224.691406 59.445312 L 190.082031 59.445312 C 184.277344 59.445312 179.574219 64.148438 179.574219 69.953125 L 179.574219 104.273438 C 182.132812 105.859375 185.136719 104.730469 187.167969 103.558594 C 187.882812 102.945312 188.652344 102.386719 189.480469 101.914062 C 191.625 100.6875 194.113281 99.984375 196.773438 99.984375 C 204.90625 99.984375 211.496094 106.574219 211.496094 114.695312 C 211.496094 122.828125 204.90625 129.417969 196.773438 129.417969 C 192.882812 129.417969 189.351562 127.902344 186.722656 125.445312 C 184.707031 124.371094 181.949219 123.5 179.574219 124.957031 L 179.574219 159.4375 C 179.574219 165.238281 184.277344 169.941406 190.082031 169.941406 L 224.402344 169.941406 C 225.976562 167.382812 224.859375 164.382812 223.6875 162.367188 C 223.058594 161.652344 222.515625 160.867188 222.046875 160.035156 C 220.800781 157.894531 220.101562 155.40625 220.101562 152.746094 C 220.101562 144.613281 226.691406 138.023438 234.824219 138.023438 C 242.957031 138.023438 249.546875 144.613281 249.546875 152.746094 C 249.546875 156.632812 248.03125 160.179688 245.558594 162.808594 C 244.488281 164.8125 243.628906 167.570312 245.089844 169.941406 L 279.566406 169.941406 C 285.371094 169.941406 290.074219 165.238281 290.074219 159.4375 L 290.074219 124.957031 C 292.460938 123.5 295.21875 124.371094 297.21875 125.445312 C 299.851562 127.902344 303.382812 129.417969 307.269531 129.417969 C 315.402344 129.417969 321.992188 122.828125 321.992188 114.695312 C 321.992188 106.574219 315.402344 99.984375 307.269531 99.984375 " fill-opacity="1" fill-rule="nonzero"/></g><path fill="#f8dba8" d="M 139.910156 187.226562 C 139.910156 184.566406 139.207031 182.078125 137.976562 179.933594 C 137.492188 179.105469 136.949219 178.335938 136.335938 177.605469 C 135.164062 175.589844 134.03125 172.585938 135.605469 170.027344 L 169.941406 170.027344 C 175.746094 170.027344 180.433594 165.3125 180.433594 159.523438 L 180.433594 124.757812 C 182.691406 123.699219 185.195312 124.515625 187.066406 125.515625 C 189.695312 127.972656 193.226562 129.488281 197.117188 129.488281 C 205.25 129.488281 211.839844 122.898438 211.839844 114.765625 C 211.839844 106.644531 205.25 100.054688 197.117188 100.054688 C 194.457031 100.054688 191.984375 100.757812 189.824219 101.988281 C 188.996094 102.472656 188.222656 103.015625 187.507812 103.644531 C 185.609375 104.730469 182.878906 105.773438 180.433594 104.632812 L 180.433594 70.023438 C 180.433594 64.234375 175.746094 59.515625 169.941406 59.515625 L 135.605469 59.515625 C 134.03125 62.089844 135.164062 65.09375 136.335938 67.109375 C 136.949219 67.820312 137.492188 68.609375 137.976562 69.4375 C 139.207031 71.582031 139.910156 74.070312 139.910156 76.726562 C 139.910156 84.847656 133.320312 91.4375 125.199219 91.4375 C 117.066406 91.4375 110.476562 84.847656 110.476562 76.726562 C 110.476562 72.824219 111.992188 69.292969 114.449219 66.664062 C 115.523438 64.664062 116.394531 61.902344 114.921875 59.515625 L 80.441406 59.515625 C 74.640625 59.515625 69.949219 64.234375 69.949219 70.023438 L 69.949219 104.359375 C 72.496094 105.933594 75.496094 104.816406 77.527344 103.644531 C 78.242188 103.015625 79.011719 102.472656 79.84375 101.988281 C 82 100.757812 84.488281 100.054688 87.148438 100.054688 C 95.265625 100.054688 101.855469 106.644531 101.855469 114.765625 C 101.855469 122.898438 95.265625 129.488281 87.148438 129.488281 C 83.246094 129.488281 79.714844 127.972656 77.082031 125.515625 C 75.082031 124.441406 72.324219 123.570312 69.949219 125.042969 L 69.949219 159.523438 C 69.949219 165.3125 74.640625 170.027344 80.441406 170.027344 L 114.921875 170.027344 C 116.394531 172.402344 115.523438 175.160156 114.449219 177.160156 C 111.992188 179.792969 110.476562 183.335938 110.476562 187.226562 C 110.476562 195.359375 117.066406 201.949219 125.199219 201.949219 C 133.320312 201.949219 139.910156 195.359375 139.910156 187.226562 " fill-opacity="1" fill-rule="nonzero"/></svg>