<svg xmlns="http://www.w3.org/2000/svg" xmlns:xlink="http://www.w3.org/1999/xlink" width="1080" zoomAndPan="magnify" viewBox="0 0 810 1012.49997" height="1350" preserveAspectRatio="xMidYMid meet" version="1.0"><defs><clipPath id="d68f9fb082"><path d="M 405 163.949219 L 712.453125 163.949219 L 712.453125 361 L 405 361 Z M 405 163.949219 " clip-rule="nonzero"/></clipPath><clipPath id="d8c662e4e3"><path d="M 185 374 L 486 374 L 486 848.359375 L 185 848.359375 Z M 185 374 " clip-rule="nonzero"/></clipPath></defs><path fill="#49868b" d="M 264.457031 359.320312 C 260.535156 356.96875 256.902344 354.1875 253.605469 351.054688 C 249.609375 353.726562 244.976562 355.285156 240.019531 355.285156 C 237.914062 355.285156 235.875 354.980469 233.90625 354.457031 C 232.199219 361.578125 231.398438 370 231.84375 380.050781 C 231.851562 380.210938 231.851562 380.363281 231.859375 380.523438 C 240.019531 377.238281 250.730469 373.851562 263.890625 371.582031 C 264.011719 367.320312 264.148438 363.1875 264.457031 359.320312 Z M 264.457031 359.320312 " fill-opacity="1" fill-rule="nonzero"/><path fill="#49868b" d="M 240.761719 275.363281 C 248.066406 261.253906 260.425781 250.835938 275.566406 246.023438 C 290.710938 241.214844 306.820312 242.585938 320.925781 249.890625 C 321.003906 249.929688 321.074219 249.980469 321.148438 250.019531 C 342.707031 259.648438 357.777344 281.277344 357.777344 306.375 C 357.777344 309.933594 357.457031 313.417969 356.875 316.816406 C 364.71875 313.183594 370.28125 304.167969 370.28125 293.589844 C 370.28125 282.238281 363.871094 272.671875 355.109375 269.648438 C 348.515625 257.316406 338.382812 247.253906 325.695312 240.683594 C 309.125 232.105469 290.207031 230.492188 272.429688 236.140625 C 254.648438 241.789062 240.132812 254.027344 231.550781 270.59375 C 226.792969 279.785156 224.1875 289.699219 223.765625 299.738281 C 226.960938 296.972656 230.695312 294.980469 234.769531 294.058594 C 235.722656 287.621094 237.679688 281.308594 240.761719 275.363281 Z M 240.761719 275.363281 " fill-opacity="1" fill-rule="nonzero"/><g clip-path="url(#d68f9fb082)"><path fill="#49868b" d="M 476.65625 281.910156 L 520.171875 269.808594 C 523.921875 275.308594 528 279.347656 532.550781 281.195312 C 534.433594 281.960938 536.355469 282.34375 538.296875 282.34375 C 540.878906 282.34375 543.503906 281.667969 546.140625 280.316406 C 556.859375 274.824219 569.519531 265.851562 584.183594 255.457031 C 586.808594 253.59375 589.5 251.691406 592.222656 249.773438 L 712.167969 216.421875 L 708.695312 203.933594 L 626.691406 226.734375 C 652.234375 210.988281 680.808594 197.03125 711.945312 191.777344 L 711.082031 186.667969 C 673.117188 193.070312 639.140625 211.9375 609.734375 231.453125 L 518.703125 256.765625 C 513.019531 245.109375 507.925781 230.089844 503.183594 216.058594 C 493.734375 188.097656 485.574219 163.949219 473.242188 163.949219 C 467.464844 163.949219 462.726562 166.035156 459.167969 170.15625 C 452.820312 177.496094 451.714844 189.832031 451.835938 198.511719 L 442.6875 198.511719 L 442.6875 246.902344 L 429.996094 246.902344 L 429.996094 273.148438 L 423.515625 273.148438 L 423.515625 284.378906 L 429.996094 284.378906 L 429.996094 304.792969 L 419.238281 304.792969 L 419.238281 303.605469 C 419.238281 299.863281 416.175781 296.800781 412.433594 296.800781 C 408.6875 296.800781 405.628906 299.863281 405.628906 303.605469 L 405.628906 353.507812 C 405.628906 357.25 408.6875 360.3125 412.433594 360.3125 C 416.175781 360.3125 419.238281 357.25 419.238281 353.507812 L 419.238281 308.25 L 429.996094 308.25 L 429.996094 314.300781 L 476.65625 314.300781 Z M 577.425781 253.890625 C 564.519531 263.023438 553.25 270.847656 543.777344 275.699219 C 540.515625 277.375 537.476562 277.601562 534.5 276.390625 C 531.3125 275.097656 528.300781 272.265625 525.4375 268.347656 Z M 457.03125 198.511719 C 456.902344 190.660156 457.796875 179.667969 463.089844 173.546875 C 465.65625 170.574219 468.980469 169.132812 473.242188 169.132812 C 481.851562 169.132812 490.574219 194.945312 498.273438 217.714844 C 503.101562 232.003906 508.015625 246.523438 513.617188 258.179688 L 476.65625 268.457031 L 476.65625 246.902344 L 463.964844 246.902344 L 463.964844 198.511719 Z M 457.03125 198.511719 " fill-opacity="1" fill-rule="nonzero"/></g><path fill="#49868b" d="M 449.761719 353.832031 L 456.890625 353.832031 C 464.019531 353.832031 469.851562 348 469.851562 340.871094 L 469.851562 320.457031 L 436.800781 320.457031 L 436.800781 340.871094 C 436.800781 348 442.632812 353.832031 449.761719 353.832031 Z M 449.761719 353.832031 " fill-opacity="1" fill-rule="nonzero"/><path fill="#49868b" d="M 267.042969 324.375 C 267.042969 333.40625 263.621094 341.519531 258.203125 347.175781 C 268.152344 356.414062 281.4375 362.105469 296.082031 362.105469 C 326.863281 362.105469 351.816406 337.15625 351.816406 306.375 C 351.816406 275.59375 326.863281 250.640625 296.082031 250.640625 C 269.714844 250.640625 247.679688 268.972656 241.886719 293.570312 C 255.917969 294.675781 267.042969 308.050781 267.042969 324.375 Z M 267.042969 324.375 " fill-opacity="1" fill-rule="nonzero"/><path fill="#49868b" d="M 240.019531 349.324219 C 251.652344 349.324219 261.082031 338.152344 261.082031 324.375 C 261.082031 310.59375 251.652344 299.421875 240.019531 299.421875 C 228.386719 299.421875 218.957031 310.59375 218.957031 324.375 C 218.957031 338.152344 228.386719 349.324219 240.019531 349.324219 Z M 228.355469 323.238281 C 228.355469 316.53125 233.144531 311.089844 239.046875 311.089844 C 244.953125 311.089844 249.742188 316.53125 249.742188 323.238281 C 249.742188 329.953125 244.953125 335.390625 239.046875 335.390625 C 233.144531 335.390625 228.355469 329.953125 228.355469 323.238281 Z M 228.355469 323.238281 " fill-opacity="1" fill-rule="nonzero"/><path fill="#49868b" d="M 346.113281 426.054688 C 347.816406 426.414062 362.839844 432.414062 366.027344 434.246094 C 367.800781 435.269531 371.796875 436.648438 376.027344 438.109375 C 378.957031 439.121094 382.96875 440.507812 383.679688 440.996094 L 385.933594 437.828125 C 384.871094 437.070312 382.101562 436.09375 377.296875 434.433594 C 373.605469 433.160156 369.421875 431.714844 367.96875 430.878906 C 364.566406 428.917969 349.257812 422.746094 346.917969 422.25 C 344.40625 421.71875 334.570312 418.792969 333.355469 417.980469 C 331.957031 416.816406 325.160156 414.5625 321.234375 413.324219 L 320.0625 417.03125 C 324.605469 418.464844 330.039062 420.386719 330.863281 420.96875 C 332.796875 422.578125 344.953125 425.808594 346.113281 426.054688 Z M 346.113281 426.054688 " fill-opacity="1" fill-rule="nonzero"/><path fill="#49868b" d="M 342.4375 435.441406 C 344.136719 435.800781 359.164062 441.800781 362.351562 443.632812 C 364.125 444.65625 368.125 446.035156 372.355469 447.496094 C 375.285156 448.507812 379.292969 449.894531 380.003906 450.378906 L 382.257812 447.210938 C 381.195312 446.457031 378.425781 445.480469 373.625 443.824219 C 369.933594 442.546875 365.746094 441.101562 364.292969 440.265625 C 360.890625 438.304688 345.578125 432.128906 343.242188 431.636719 C 340.726562 431.105469 330.886719 428.171875 329.679688 427.367188 C 328.28125 426.203125 321.484375 423.949219 317.554688 422.710938 L 316.386719 426.417969 C 320.929688 427.851562 326.363281 429.773438 327.1875 430.355469 C 329.113281 431.957031 341.273438 435.191406 342.4375 435.441406 Z M 342.4375 435.441406 " fill-opacity="1" fill-rule="nonzero"/><path fill="#49868b" d="M 335.957031 451.976562 C 337.660156 452.335938 352.6875 458.335938 355.875 460.167969 C 357.648438 461.191406 361.644531 462.570312 365.875 464.03125 C 368.800781 465.042969 372.8125 466.429688 373.523438 466.917969 L 375.78125 463.75 C 374.71875 462.992188 371.949219 462.015625 367.144531 460.355469 C 363.449219 459.082031 359.265625 457.632812 357.8125 456.800781 C 354.410156 454.839844 339.101562 448.664062 336.761719 448.171875 C 334.253906 447.640625 324.414062 444.710938 323.203125 443.902344 C 321.804688 442.738281 315.003906 440.484375 311.078125 439.246094 L 309.90625 442.953125 C 314.449219 444.386719 319.882812 446.308594 320.710938 446.890625 C 322.640625 448.5 334.800781 451.730469 335.957031 451.976562 Z M 335.957031 451.976562 " fill-opacity="1" fill-rule="nonzero"/><path fill="#49868b" d="M 352.195312 469.554688 C 353.972656 470.574219 357.96875 471.957031 362.203125 473.417969 C 365.128906 474.429688 369.140625 475.816406 369.847656 476.300781 L 372.101562 473.132812 C 371.039062 472.378906 368.273438 471.402344 363.472656 469.746094 C 359.777344 468.46875 355.589844 467.023438 354.136719 466.183594 C 350.738281 464.226562 335.429688 458.050781 333.085938 457.558594 C 332.324219 457.394531 330.878906 457.011719 329.210938 456.535156 C 330.285156 457.984375 331.203125 459.570312 331.917969 461.273438 C 332.078125 461.316406 332.207031 461.34375 332.28125 461.363281 C 333.984375 461.722656 349.011719 467.722656 352.195312 469.554688 Z M 352.195312 469.554688 " fill-opacity="1" fill-rule="nonzero"/><path fill="#49868b" d="M 358.558594 482.253906 C 354.867188 480.980469 350.6875 479.535156 349.234375 478.699219 C 346.925781 477.371094 339.128906 474.097656 333.628906 471.976562 C 333.519531 473.308594 333.292969 474.621094 332.957031 475.894531 C 338.125 477.914062 345.21875 480.875 347.292969 482.070312 C 349.066406 483.089844 353.058594 484.46875 357.289062 485.929688 C 360.21875 486.941406 364.234375 488.328125 364.945312 488.816406 L 367.199219 485.648438 C 366.136719 484.890625 363.363281 483.914062 358.558594 482.253906 Z M 358.558594 482.253906 " fill-opacity="1" fill-rule="nonzero"/><path fill="#49868b" d="M 343.617188 491.453125 C 345.390625 492.476562 349.386719 493.855469 353.617188 495.316406 C 356.546875 496.328125 360.558594 497.714844 361.269531 498.199219 L 363.523438 495.035156 C 362.460938 494.277344 359.691406 493.300781 354.886719 491.640625 C 351.195312 490.367188 347.011719 488.917969 345.558594 488.082031 C 343.332031 486.804688 336.03125 483.726562 330.582031 481.609375 C 329.90625 482.765625 329.128906 483.859375 328.261719 484.882812 C 333.464844 486.890625 341.402344 490.179688 343.617188 491.453125 Z M 343.617188 491.453125 " fill-opacity="1" fill-rule="nonzero"/><path fill="#49868b" d="M 303.144531 495.382812 C 306.789062 497.085938 316.210938 499.582031 317.222656 499.796875 C 318.925781 500.15625 333.953125 506.15625 337.140625 507.992188 C 338.914062 509.011719 342.90625 510.390625 347.132812 511.851562 C 350.066406 512.863281 354.082031 514.25 354.789062 514.738281 L 357.046875 511.570312 C 355.984375 510.8125 353.210938 509.835938 348.402344 508.175781 C 344.714844 506.902344 340.53125 505.457031 339.078125 504.621094 C 335.679688 502.664062 320.371094 496.484375 318.027344 495.992188 C 316.679688 495.707031 313.210938 494.726562 310.101562 493.757812 Z M 303.144531 495.382812 " fill-opacity="1" fill-rule="nonzero"/><path fill="#49868b" d="M 287.496094 500.160156 C 292.039062 501.59375 297.472656 503.515625 298.296875 504.097656 C 300.230469 505.707031 312.386719 508.9375 313.546875 509.179688 C 315.246094 509.539062 330.273438 515.539062 333.464844 517.375 C 335.234375 518.394531 339.230469 519.777344 343.460938 521.238281 C 346.390625 522.25 350.402344 523.636719 351.113281 524.121094 L 353.367188 520.957031 C 352.304688 520.199219 349.535156 519.222656 344.730469 517.5625 C 341.039062 516.285156 336.855469 514.839844 335.402344 514.003906 C 332 512.046875 316.691406 505.871094 314.351562 505.375 C 311.839844 504.847656 302.003906 501.917969 300.789062 501.109375 C 299.816406 500.296875 296.222656 498.960938 292.800781 497.804688 L 287.875 498.953125 Z M 287.496094 500.160156 " fill-opacity="1" fill-rule="nonzero"/><g clip-path="url(#d8c662e4e3)"><path fill="#49868b" d="M 190.277344 507.792969 C 193.449219 510.832031 197.636719 512.476562 201.933594 512.476562 C 203.210938 512.476562 204.496094 512.332031 205.769531 512.03125 L 314.734375 486.550781 C 323.792969 484.433594 329.421875 475.371094 327.304688 466.308594 C 325.183594 457.246094 316.117188 451.632812 307.058594 453.738281 L 223.949219 473.171875 C 225.59375 466.285156 227.25 459.929688 228.863281 454.140625 C 229.464844 451.96875 230.058594 449.898438 230.648438 447.894531 C 231.691406 444.328125 232.699219 441.027344 233.65625 438 C 236.457031 446.164062 239.066406 454.75 241.003906 463.0625 L 282.261719 453.414062 L 306.1875 384.472656 L 390.984375 413.902344 L 389.101562 419.332031 L 312.933594 389.492188 L 288.460938 451.964844 L 295.507812 450.316406 L 316.308594 397.21875 L 399.882812 429.960938 L 355.222656 543.960938 L 271.648438 511.21875 L 275.300781 501.894531 L 241.203125 509.867188 C 237.722656 524.234375 232.578125 534.523438 229.886719 550.910156 C 229.324219 552.625 228.925781 554.421875 228.734375 556.289062 L 223.554688 606.023438 L 201.34375 819.402344 C 199.859375 833.640625 210.199219 846.386719 224.441406 847.871094 C 225.351562 847.964844 226.257812 848.011719 227.15625 848.011719 C 240.265625 848.011719 251.519531 838.097656 252.910156 824.773438 L 272.464844 636.929688 L 274.242188 619.859375 C 283.054688 604.707031 291.269531 599.949219 296.085938 599.949219 C 300.910156 599.949219 309.140625 604.722656 317.964844 619.917969 L 319.746094 637.011719 L 339.292969 824.773438 C 340.679688 838.097656 351.933594 848.011719 365.046875 848.011719 C 365.941406 848.011719 366.847656 847.964844 367.761719 847.871094 C 382 846.386719 392.34375 833.640625 390.859375 819.402344 L 368.628906 605.871094 L 363.46875 556.289062 C 363.269531 554.378906 362.851562 552.546875 362.273438 550.792969 C 361.945312 548.808594 361.574219 546.921875 361.179688 545.097656 L 364.9375 535.511719 L 379.332031 498.765625 C 381.96875 500.347656 384.953125 501.183594 387.984375 501.183594 C 389.308594 501.183594 390.636719 501.027344 391.945312 500.710938 L 472.964844 481.101562 C 482.007812 478.910156 487.566406 469.804688 485.375 460.757812 C 483.1875 451.714844 474.078125 446.152344 465.035156 448.347656 L 400.660156 463.929688 C 399.65625 459.757812 398.652344 455.804688 397.648438 452.007812 L 407.609375 426.582031 L 394.652344 421.507812 L 398.570312 410.222656 L 382.539062 404.660156 C 381.898438 403.039062 381.5 402.09375 381.417969 401.898438 C 381.101562 401.15625 380.722656 400.460938 380.320312 399.792969 C 378.375 396.5625 375.472656 394.167969 372.132812 392.839844 C 362.925781 387.484375 336.894531 374.859375 296.089844 374.859375 C 255.347656 374.859375 229.335938 387.441406 220.085938 392.816406 C 216.726562 394.136719 213.804688 396.539062 211.847656 399.78125 C 211.445312 400.457031 211.0625 401.152344 210.746094 401.898438 C 210.453125 402.585938 206.914062 411.007812 202.160156 425.773438 C 201.289062 428.472656 200.382812 431.382812 199.445312 434.496094 C 198.066406 439.070312 196.632812 444.085938 195.171875 449.515625 C 191.867188 461.820312 188.449219 476.234375 185.378906 492.496094 C 184.320312 498.097656 186.164062 503.851562 190.277344 507.792969 Z M 190.277344 507.792969 " fill-opacity="1" fill-rule="nonzero"/></g></svg>