<svg xmlns="http://www.w3.org/2000/svg" xmlns:xlink="http://www.w3.org/1999/xlink" width="200" zoomAndPan="magnify" viewBox="0 0 150 149.999998" height="200" preserveAspectRatio="xMidYMid meet" version="1.0"><defs><filter x="0%" y="0%" width="100%" height="100%" id="48fbee7a71"><feColorMatrix values="0 0 0 0 1 0 0 0 0 1 0 0 0 0 1 0 0 0 1 0" color-interpolation-filters="sRGB"/></filter><mask id="9ca00662a2"><g filter="url(#48fbee7a71)"><rect x="-15" width="180" fill="#000000" y="-15" height="179.999997" fill-opacity="0.55"/></g></mask><clipPath id="1a3ea51590"><path d="M 0.914062 0.914062 L 108.832031 0.914062 L 108.832031 108.832031 L 0.914062 108.832031 Z M 0.914062 0.914062 " clip-rule="nonzero"/></clipPath><clipPath id="9fee7d8a5b"><path d="M 108.832031 54.871094 C 108.832031 56.640625 108.742188 58.402344 108.570312 60.160156 C 108.398438 61.917969 108.136719 63.664062 107.792969 65.398438 C 107.449219 67.132812 107.019531 68.84375 106.507812 70.535156 C 105.996094 72.226562 105.398438 73.886719 104.722656 75.519531 C 104.046875 77.152344 103.292969 78.75 102.460938 80.308594 C 101.625 81.867188 100.71875 83.378906 99.738281 84.851562 C 98.753906 86.320312 97.703125 87.738281 96.582031 89.101562 C 95.460938 90.46875 94.277344 91.777344 93.027344 93.027344 C 91.777344 94.277344 90.46875 95.460938 89.101562 96.582031 C 87.738281 97.703125 86.320312 98.753906 84.851562 99.738281 C 83.378906 100.71875 81.867188 101.625 80.308594 102.460938 C 78.75 103.292969 77.152344 104.046875 75.519531 104.722656 C 73.886719 105.398438 72.226562 105.996094 70.535156 106.507812 C 68.84375 107.019531 67.132812 107.449219 65.398438 107.792969 C 63.664062 108.136719 61.917969 108.398438 60.160156 108.570312 C 58.402344 108.742188 56.640625 108.832031 54.871094 108.832031 C 53.105469 108.832031 51.339844 108.742188 49.582031 108.570312 C 47.824219 108.398438 46.078125 108.136719 44.34375 107.792969 C 42.613281 107.449219 40.898438 107.019531 39.207031 106.507812 C 37.515625 105.996094 35.855469 105.398438 34.222656 104.722656 C 32.589844 104.046875 30.996094 103.292969 29.4375 102.460938 C 27.878906 101.625 26.363281 100.71875 24.894531 99.738281 C 23.425781 98.753906 22.007812 97.703125 20.640625 96.582031 C 19.273438 95.460938 17.96875 94.277344 16.71875 93.027344 C 15.46875 91.777344 14.28125 90.46875 13.160156 89.101562 C 12.039062 87.738281 10.988281 86.320312 10.007812 84.851562 C 9.023438 83.378906 8.117188 81.867188 7.285156 80.308594 C 6.453125 78.75 5.695312 77.152344 5.019531 75.519531 C 4.34375 73.886719 3.75 72.226562 3.238281 70.535156 C 2.722656 68.84375 2.292969 67.132812 1.949219 65.398438 C 1.605469 63.664062 1.347656 61.917969 1.171875 60.160156 C 1 58.402344 0.914062 56.640625 0.914062 54.871094 C 0.914062 53.105469 1 51.339844 1.171875 49.582031 C 1.347656 47.824219 1.605469 46.078125 1.949219 44.34375 C 2.292969 42.613281 2.722656 40.898438 3.238281 39.207031 C 3.75 37.515625 4.34375 35.855469 5.019531 34.222656 C 5.695312 32.589844 6.453125 30.996094 7.285156 29.4375 C 8.117188 27.878906 9.023438 26.363281 10.007812 24.894531 C 10.988281 23.425781 12.039062 22.007812 13.160156 20.640625 C 14.28125 19.273438 15.46875 17.96875 16.71875 16.71875 C 17.96875 15.46875 19.273438 14.28125 20.640625 13.160156 C 22.007812 12.039062 23.425781 10.988281 24.894531 10.007812 C 26.363281 9.023438 27.878906 8.117188 29.4375 7.285156 C 30.996094 6.453125 32.589844 5.695312 34.222656 5.019531 C 35.855469 4.34375 37.515625 3.75 39.207031 3.238281 C 40.898438 2.722656 42.613281 2.292969 44.34375 1.949219 C 46.078125 1.605469 47.824219 1.347656 49.582031 1.171875 C 51.339844 1 53.105469 0.914062 54.871094 0.914062 C 56.640625 0.914062 58.402344 1 60.160156 1.171875 C 61.917969 1.347656 63.664062 1.605469 65.398438 1.949219 C 67.132812 2.292969 68.84375 2.722656 70.535156 3.238281 C 72.226562 3.75 73.886719 4.34375 75.519531 5.019531 C 77.152344 5.695312 78.75 6.453125 80.308594 7.285156 C 81.867188 8.117188 83.378906 9.023438 84.851562 10.007812 C 86.320312 10.988281 87.738281 12.039062 89.101562 13.160156 C 90.46875 14.28125 91.777344 15.46875 93.027344 16.71875 C 94.277344 17.96875 95.460938 19.273438 96.582031 20.640625 C 97.703125 22.007812 98.753906 23.425781 99.738281 24.894531 C 100.71875 26.363281 101.625 27.878906 102.460938 29.4375 C 103.292969 30.996094 104.046875 32.589844 104.722656 34.222656 C 105.398438 35.855469 105.996094 37.515625 106.507812 39.207031 C 107.019531 40.898438 107.449219 42.613281 107.792969 44.34375 C 108.136719 46.078125 108.398438 47.824219 108.570312 49.582031 C 108.742188 51.339844 108.832031 53.105469 108.832031 54.871094 Z M 108.832031 54.871094 " clip-rule="nonzero"/></clipPath><linearGradient x1="50" gradientTransform="matrix(1.135973, 0, 0, 1.135973, -1.926747, -1.926746)" y1="97.499994" x2="50" gradientUnits="userSpaceOnUse" y2="2.5" id="99ca587c32"><stop stop-opacity="1" stop-color="rgb(83.666992%, 8.856201%, 8.877563%)" offset="0"/><stop stop-opacity="1" stop-color="rgb(83.772278%, 9.014893%, 9.049988%)" offset="0.015625"/><stop stop-opacity="1" stop-color="rgb(83.981323%, 9.333801%, 9.394836%)" offset="0.03125"/><stop stop-opacity="1" stop-color="rgb(84.190369%, 9.65271%, 9.741211%)" offset="0.046875"/><stop stop-opacity="1" stop-color="rgb(84.40094%, 9.971619%, 10.087585%)" offset="0.0625"/><stop stop-opacity="1" stop-color="rgb(84.609985%, 10.292053%, 10.432434%)" offset="0.078125"/><stop stop-opacity="1" stop-color="rgb(84.819031%, 10.610962%, 10.778809%)" offset="0.09375"/><stop stop-opacity="1" stop-color="rgb(85.028076%, 10.929871%, 11.123657%)" offset="0.109375"/><stop stop-opacity="1" stop-color="rgb(85.238647%, 11.248779%, 11.470032%)" offset="0.125"/><stop stop-opacity="1" stop-color="rgb(85.447693%, 11.567688%, 11.816406%)" offset="0.140625"/><stop stop-opacity="1" stop-color="rgb(85.656738%, 11.888123%, 12.161255%)" offset="0.15625"/><stop stop-opacity="1" stop-color="rgb(85.865784%, 12.207031%, 12.507629%)" offset="0.171875"/><stop stop-opacity="1" stop-color="rgb(86.076355%, 12.52594%, 12.854004%)" offset="0.1875"/><stop stop-opacity="1" stop-color="rgb(86.2854%, 12.844849%, 13.198853%)" offset="0.203125"/><stop stop-opacity="1" stop-color="rgb(86.494446%, 13.163757%, 13.545227%)" offset="0.21875"/><stop stop-opacity="1" stop-color="rgb(86.705017%, 13.484192%, 13.890076%)" offset="0.234375"/><stop stop-opacity="1" stop-color="rgb(86.914062%, 13.803101%, 14.23645%)" offset="0.25"/><stop stop-opacity="1" stop-color="rgb(87.123108%, 14.122009%, 14.582825%)" offset="0.265625"/><stop stop-opacity="1" stop-color="rgb(87.332153%, 14.440918%, 14.927673%)" offset="0.28125"/><stop stop-opacity="1" stop-color="rgb(87.542725%, 14.759827%, 15.274048%)" offset="0.296875"/><stop stop-opacity="1" stop-color="rgb(87.75177%, 15.078735%, 15.618896%)" offset="0.3125"/><stop stop-opacity="1" stop-color="rgb(87.960815%, 15.39917%, 15.965271%)" offset="0.328125"/><stop stop-opacity="1" stop-color="rgb(88.171387%, 15.718079%, 16.311646%)" offset="0.34375"/><stop stop-opacity="1" stop-color="rgb(88.380432%, 16.036987%, 16.656494%)" offset="0.359375"/><stop stop-opacity="1" stop-color="rgb(88.589478%, 16.355896%, 17.002869%)" offset="0.375"/><stop stop-opacity="1" stop-color="rgb(88.798523%, 16.674805%, 17.349243%)" offset="0.390625"/><stop stop-opacity="1" stop-color="rgb(89.009094%, 16.995239%, 17.694092%)" offset="0.40625"/><stop stop-opacity="1" stop-color="rgb(89.21814%, 17.314148%, 18.040466%)" offset="0.421875"/><stop stop-opacity="1" stop-color="rgb(89.427185%, 17.633057%, 18.385315%)" offset="0.4375"/><stop stop-opacity="1" stop-color="rgb(89.63623%, 17.951965%, 18.731689%)" offset="0.453125"/><stop stop-opacity="1" stop-color="rgb(89.846802%, 18.270874%, 19.078064%)" offset="0.46875"/><stop stop-opacity="1" stop-color="rgb(90.055847%, 18.589783%, 19.422913%)" offset="0.484375"/><stop stop-opacity="1" stop-color="rgb(90.264893%, 18.910217%, 19.769287%)" offset="0.5"/><stop stop-opacity="1" stop-color="rgb(90.475464%, 19.229126%, 20.114136%)" offset="0.515625"/><stop stop-opacity="1" stop-color="rgb(90.684509%, 19.548035%, 20.46051%)" offset="0.53125"/><stop stop-opacity="1" stop-color="rgb(90.893555%, 19.866943%, 20.806885%)" offset="0.546875"/><stop stop-opacity="1" stop-color="rgb(91.1026%, 20.185852%, 21.151733%)" offset="0.5625"/><stop stop-opacity="1" stop-color="rgb(91.313171%, 20.506287%, 21.498108%)" offset="0.578125"/><stop stop-opacity="1" stop-color="rgb(91.522217%, 20.825195%, 21.844482%)" offset="0.59375"/><stop stop-opacity="1" stop-color="rgb(91.731262%, 21.144104%, 22.189331%)" offset="0.609375"/><stop stop-opacity="1" stop-color="rgb(91.941833%, 21.463013%, 22.535706%)" offset="0.625"/><stop stop-opacity="1" stop-color="rgb(92.150879%, 21.781921%, 22.880554%)" offset="0.640625"/><stop stop-opacity="1" stop-color="rgb(92.359924%, 22.102356%, 23.226929%)" offset="0.65625"/><stop stop-opacity="1" stop-color="rgb(92.56897%, 22.421265%, 23.573303%)" offset="0.671875"/><stop stop-opacity="1" stop-color="rgb(92.779541%, 22.740173%, 23.918152%)" offset="0.6875"/><stop stop-opacity="1" stop-color="rgb(92.988586%, 23.059082%, 24.264526%)" offset="0.703125"/><stop stop-opacity="1" stop-color="rgb(93.197632%, 23.377991%, 24.610901%)" offset="0.71875"/><stop stop-opacity="1" stop-color="rgb(93.406677%, 23.696899%, 24.95575%)" offset="0.734375"/><stop stop-opacity="1" stop-color="rgb(93.617249%, 24.017334%, 25.302124%)" offset="0.75"/><stop stop-opacity="1" stop-color="rgb(93.826294%, 24.336243%, 25.646973%)" offset="0.765625"/><stop stop-opacity="1" stop-color="rgb(94.035339%, 24.655151%, 25.993347%)" offset="0.78125"/><stop stop-opacity="1" stop-color="rgb(94.245911%, 24.97406%, 26.339722%)" offset="0.796875"/><stop stop-opacity="1" stop-color="rgb(94.454956%, 25.292969%, 26.68457%)" offset="0.8125"/><stop stop-opacity="1" stop-color="rgb(94.664001%, 25.613403%, 27.030945%)" offset="0.828125"/><stop stop-opacity="1" stop-color="rgb(94.873047%, 25.932312%, 27.375793%)" offset="0.84375"/><stop stop-opacity="1" stop-color="rgb(95.083618%, 26.251221%, 27.722168%)" offset="0.859375"/><stop stop-opacity="1" stop-color="rgb(95.292664%, 26.570129%, 28.068542%)" offset="0.875"/><stop stop-opacity="1" stop-color="rgb(95.501709%, 26.889038%, 28.413391%)" offset="0.890625"/><stop stop-opacity="1" stop-color="rgb(95.71228%, 27.207947%, 28.759766%)" offset="0.90625"/><stop stop-opacity="1" stop-color="rgb(95.921326%, 27.528381%, 29.10614%)" offset="0.921875"/><stop stop-opacity="1" stop-color="rgb(96.063232%, 27.74353%, 29.338074%)" offset="0.9375"/><stop stop-opacity="1" stop-color="rgb(96.099854%, 27.799988%, 29.399109%)" offset="1"/></linearGradient><clipPath id="a66f45d6c3"><rect x="0" width="110" y="0" height="110"/></clipPath><mask id="045ba91aed"><g filter="url(#48fbee7a71)"><rect x="-15" width="180" fill="#000000" y="-15" height="179.999997" fill-opacity="0.6"/></g></mask><clipPath id="e150ba5a15"><path d="M 2 0.464844 L 58 0.464844 L 58 40 L 2 40 Z M 2 0.464844 " clip-rule="nonzero"/></clipPath><clipPath id="fa0e5ed386"><path d="M 0.464844 18.464844 L 0.464844 41.535156 C 0.464844 46.308594 2.359375 50.886719 5.734375 54.265625 C 9.113281 57.640625 13.691406 59.535156 18.464844 59.535156 L 41.535156 59.535156 C 46.308594 59.535156 50.886719 57.640625 54.265625 54.265625 C 57.640625 50.886719 59.535156 46.308594 59.535156 41.535156 L 59.535156 18.464844 C 59.535156 13.691406 57.640625 9.113281 54.265625 5.734375 C 50.886719 2.359375 46.308594 0.464844 41.535156 0.464844 L 18.464844 0.464844 C 13.691406 0.464844 9.113281 2.359375 5.734375 5.734375 C 2.359375 9.113281 0.464844 13.691406 0.464844 18.464844 Z M 0.464844 18.464844 " clip-rule="nonzero"/></clipPath><clipPath id="918a4db589"><path d="M 6 4 L 54 4 L 54 36 L 6 36 Z M 6 4 " clip-rule="nonzero"/></clipPath><clipPath id="9f4e59acc8"><path d="M 0.464844 18.464844 L 0.464844 41.535156 C 0.464844 46.308594 2.359375 50.886719 5.734375 54.265625 C 9.113281 57.640625 13.691406 59.535156 18.464844 59.535156 L 41.535156 59.535156 C 46.308594 59.535156 50.886719 57.640625 54.265625 54.265625 C 57.640625 50.886719 59.535156 46.308594 59.535156 41.535156 L 59.535156 18.464844 C 59.535156 13.691406 57.640625 9.113281 54.265625 5.734375 C 50.886719 2.359375 46.308594 0.464844 41.535156 0.464844 L 18.464844 0.464844 C 13.691406 0.464844 9.113281 2.359375 5.734375 5.734375 C 2.359375 9.113281 0.464844 13.691406 0.464844 18.464844 Z M 0.464844 18.464844 " clip-rule="nonzero"/></clipPath><clipPath id="6134de1713"><path d="M 24 11 L 40 11 L 40 28 L 24 28 Z M 24 11 " clip-rule="nonzero"/></clipPath><clipPath id="84b4550f19"><path d="M 0.464844 18.464844 L 0.464844 41.535156 C 0.464844 46.308594 2.359375 50.886719 5.734375 54.265625 C 9.113281 57.640625 13.691406 59.535156 18.464844 59.535156 L 41.535156 59.535156 C 46.308594 59.535156 50.886719 57.640625 54.265625 54.265625 C 57.640625 50.886719 59.535156 46.308594 59.535156 41.535156 L 59.535156 18.464844 C 59.535156 13.691406 57.640625 9.113281 54.265625 5.734375 C 50.886719 2.359375 46.308594 0.464844 41.535156 0.464844 L 18.464844 0.464844 C 13.691406 0.464844 9.113281 2.359375 5.734375 5.734375 C 2.359375 9.113281 0.464844 13.691406 0.464844 18.464844 Z M 0.464844 18.464844 " clip-rule="nonzero"/></clipPath><clipPath id="5fc412ce37"><path d="M 34 17 L 40 17 L 40 20 L 34 20 Z M 34 17 " clip-rule="nonzero"/></clipPath><clipPath id="90a147f44a"><path d="M 0.464844 18.464844 L 0.464844 41.535156 C 0.464844 46.308594 2.359375 50.886719 5.734375 54.265625 C 9.113281 57.640625 13.691406 59.535156 18.464844 59.535156 L 41.535156 59.535156 C 46.308594 59.535156 50.886719 57.640625 54.265625 54.265625 C 57.640625 50.886719 59.535156 46.308594 59.535156 41.535156 L 59.535156 18.464844 C 59.535156 13.691406 57.640625 9.113281 54.265625 5.734375 C 50.886719 2.359375 46.308594 0.464844 41.535156 0.464844 L 18.464844 0.464844 C 13.691406 0.464844 9.113281 2.359375 5.734375 5.734375 C 2.359375 9.113281 0.464844 13.691406 0.464844 18.464844 Z M 0.464844 18.464844 " clip-rule="nonzero"/></clipPath><clipPath id="17153513aa"><path d="M 24 17 L 40 17 L 40 28 L 24 28 Z M 24 17 " clip-rule="nonzero"/></clipPath><clipPath id="49f390c758"><path d="M 0.464844 18.464844 L 0.464844 41.535156 C 0.464844 46.308594 2.359375 50.886719 5.734375 54.265625 C 9.113281 57.640625 13.691406 59.535156 18.464844 59.535156 L 41.535156 59.535156 C 46.308594 59.535156 50.886719 57.640625 54.265625 54.265625 C 57.640625 50.886719 59.535156 46.308594 59.535156 41.535156 L 59.535156 18.464844 C 59.535156 13.691406 57.640625 9.113281 54.265625 5.734375 C 50.886719 2.359375 46.308594 0.464844 41.535156 0.464844 L 18.464844 0.464844 C 13.691406 0.464844 9.113281 2.359375 5.734375 5.734375 C 2.359375 9.113281 0.464844 13.691406 0.464844 18.464844 Z M 0.464844 18.464844 " clip-rule="nonzero"/></clipPath><clipPath id="4997a40bd5"><path d="M 2 0.464844 L 58 0.464844 L 58 40 L 2 40 Z M 2 0.464844 " clip-rule="nonzero"/></clipPath><clipPath id="933699b3b4"><path d="M 0.464844 18.464844 L 0.464844 41.535156 C 0.464844 46.308594 2.359375 50.886719 5.734375 54.265625 C 9.113281 57.640625 13.691406 59.535156 18.464844 59.535156 L 41.535156 59.535156 C 46.308594 59.535156 50.886719 57.640625 54.265625 54.265625 C 57.640625 50.886719 59.535156 46.308594 59.535156 41.535156 L 59.535156 18.464844 C 59.535156 13.691406 57.640625 9.113281 54.265625 5.734375 C 50.886719 2.359375 46.308594 0.464844 41.535156 0.464844 L 18.464844 0.464844 C 13.691406 0.464844 9.113281 2.359375 5.734375 5.734375 C 2.359375 9.113281 0.464844 13.691406 0.464844 18.464844 Z M 0.464844 18.464844 " clip-rule="nonzero"/></clipPath><clipPath id="f36c0a62d8"><path d="M 6 4 L 54 4 L 54 36 L 6 36 Z M 6 4 " clip-rule="nonzero"/></clipPath><clipPath id="4817c62e64"><path d="M 0.464844 18.464844 L 0.464844 41.535156 C 0.464844 46.308594 2.359375 50.886719 5.734375 54.265625 C 9.113281 57.640625 13.691406 59.535156 18.464844 59.535156 L 41.535156 59.535156 C 46.308594 59.535156 50.886719 57.640625 54.265625 54.265625 C 57.640625 50.886719 59.535156 46.308594 59.535156 41.535156 L 59.535156 18.464844 C 59.535156 13.691406 57.640625 9.113281 54.265625 5.734375 C 50.886719 2.359375 46.308594 0.464844 41.535156 0.464844 L 18.464844 0.464844 C 13.691406 0.464844 9.113281 2.359375 5.734375 5.734375 C 2.359375 9.113281 0.464844 13.691406 0.464844 18.464844 Z M 0.464844 18.464844 " clip-rule="nonzero"/></clipPath><clipPath id="dc8bc92a5f"><path d="M 0.464844 34.074219 L 18.851562 34.074219 L 18.851562 59.5625 L 0.464844 59.5625 Z M 0.464844 34.074219 " clip-rule="nonzero"/></clipPath><clipPath id="1842e77773"><path d="M 0.464844 18.464844 L 0.464844 41.535156 C 0.464844 46.308594 2.359375 50.886719 5.734375 54.265625 C 9.113281 57.640625 13.691406 59.535156 18.464844 59.535156 L 41.535156 59.535156 C 46.308594 59.535156 50.886719 57.640625 54.265625 54.265625 C 57.640625 50.886719 59.535156 46.308594 59.535156 41.535156 L 59.535156 18.464844 C 59.535156 13.691406 57.640625 9.113281 54.265625 5.734375 C 50.886719 2.359375 46.308594 0.464844 41.535156 0.464844 L 18.464844 0.464844 C 13.691406 0.464844 9.113281 2.359375 5.734375 5.734375 C 2.359375 9.113281 0.464844 13.691406 0.464844 18.464844 Z M 0.464844 18.464844 " clip-rule="nonzero"/></clipPath><clipPath id="574494bdbf"><path d="M 20.796875 34.074219 L 39.230469 34.074219 L 39.230469 59.5625 L 20.796875 59.5625 Z M 20.796875 34.074219 " clip-rule="nonzero"/></clipPath><clipPath id="d45e54337c"><path d="M 0.464844 18.464844 L 0.464844 41.535156 C 0.464844 46.308594 2.359375 50.886719 5.734375 54.265625 C 9.113281 57.640625 13.691406 59.535156 18.464844 59.535156 L 41.535156 59.535156 C 46.308594 59.535156 50.886719 57.640625 54.265625 54.265625 C 57.640625 50.886719 59.535156 46.308594 59.535156 41.535156 L 59.535156 18.464844 C 59.535156 13.691406 57.640625 9.113281 54.265625 5.734375 C 50.886719 2.359375 46.308594 0.464844 41.535156 0.464844 L 18.464844 0.464844 C 13.691406 0.464844 9.113281 2.359375 5.734375 5.734375 C 2.359375 9.113281 0.464844 13.691406 0.464844 18.464844 Z M 0.464844 18.464844 " clip-rule="nonzero"/></clipPath><clipPath id="2eb80c564f"><path d="M 41.175781 34.074219 L 59.5625 34.074219 L 59.5625 59.5625 L 41.175781 59.5625 Z M 41.175781 34.074219 " clip-rule="nonzero"/></clipPath><clipPath id="4a1f9e2ee2"><path d="M 0.464844 18.464844 L 0.464844 41.535156 C 0.464844 46.308594 2.359375 50.886719 5.734375 54.265625 C 9.113281 57.640625 13.691406 59.535156 18.464844 59.535156 L 41.535156 59.535156 C 46.308594 59.535156 50.886719 57.640625 54.265625 54.265625 C 57.640625 50.886719 59.535156 46.308594 59.535156 41.535156 L 59.535156 18.464844 C 59.535156 13.691406 57.640625 9.113281 54.265625 5.734375 C 50.886719 2.359375 46.308594 0.464844 41.535156 0.464844 L 18.464844 0.464844 C 13.691406 0.464844 9.113281 2.359375 5.734375 5.734375 C 2.359375 9.113281 0.464844 13.691406 0.464844 18.464844 Z M 0.464844 18.464844 " clip-rule="nonzero"/></clipPath><clipPath id="353a39f771"><path d="M 56 40 L 57 40 L 57 41 L 56 41 Z M 56 40 " clip-rule="nonzero"/></clipPath><clipPath id="d41d3cb920"><path d="M 0.464844 18.464844 L 0.464844 41.535156 C 0.464844 46.308594 2.359375 50.886719 5.734375 54.265625 C 9.113281 57.640625 13.691406 59.535156 18.464844 59.535156 L 41.535156 59.535156 C 46.308594 59.535156 50.886719 57.640625 54.265625 54.265625 C 57.640625 50.886719 59.535156 46.308594 59.535156 41.535156 L 59.535156 18.464844 C 59.535156 13.691406 57.640625 9.113281 54.265625 5.734375 C 50.886719 2.359375 46.308594 0.464844 41.535156 0.464844 L 18.464844 0.464844 C 13.691406 0.464844 9.113281 2.359375 5.734375 5.734375 C 2.359375 9.113281 0.464844 13.691406 0.464844 18.464844 Z M 0.464844 18.464844 " clip-rule="nonzero"/></clipPath><clipPath id="cffb1f7f2e"><path d="M 41.175781 34.074219 L 59.5625 34.074219 L 59.5625 59.5625 L 41.175781 59.5625 Z M 41.175781 34.074219 " clip-rule="nonzero"/></clipPath><clipPath id="2f5bfc0ca2"><path d="M 0.464844 18.464844 L 0.464844 41.535156 C 0.464844 46.308594 2.359375 50.886719 5.734375 54.265625 C 9.113281 57.640625 13.691406 59.535156 18.464844 59.535156 L 41.535156 59.535156 C 46.308594 59.535156 50.886719 57.640625 54.265625 54.265625 C 57.640625 50.886719 59.535156 46.308594 59.535156 41.535156 L 59.535156 18.464844 C 59.535156 13.691406 57.640625 9.113281 54.265625 5.734375 C 50.886719 2.359375 46.308594 0.464844 41.535156 0.464844 L 18.464844 0.464844 C 13.691406 0.464844 9.113281 2.359375 5.734375 5.734375 C 2.359375 9.113281 0.464844 13.691406 0.464844 18.464844 Z M 0.464844 18.464844 " clip-rule="nonzero"/></clipPath><clipPath id="d38403772b"><path d="M 36 40 L 37 40 L 37 41 L 36 41 Z M 36 40 " clip-rule="nonzero"/></clipPath><clipPath id="6190ebceb0"><path d="M 0.464844 18.464844 L 0.464844 41.535156 C 0.464844 46.308594 2.359375 50.886719 5.734375 54.265625 C 9.113281 57.640625 13.691406 59.535156 18.464844 59.535156 L 41.535156 59.535156 C 46.308594 59.535156 50.886719 57.640625 54.265625 54.265625 C 57.640625 50.886719 59.535156 46.308594 59.535156 41.535156 L 59.535156 18.464844 C 59.535156 13.691406 57.640625 9.113281 54.265625 5.734375 C 50.886719 2.359375 46.308594 0.464844 41.535156 0.464844 L 18.464844 0.464844 C 13.691406 0.464844 9.113281 2.359375 5.734375 5.734375 C 2.359375 9.113281 0.464844 13.691406 0.464844 18.464844 Z M 0.464844 18.464844 " clip-rule="nonzero"/></clipPath><clipPath id="48e388f76a"><path d="M 20.796875 34.074219 L 39.230469 34.074219 L 39.230469 59.5625 L 20.796875 59.5625 Z M 20.796875 34.074219 " clip-rule="nonzero"/></clipPath><clipPath id="92dab5a496"><path d="M 0.464844 18.464844 L 0.464844 41.535156 C 0.464844 46.308594 2.359375 50.886719 5.734375 54.265625 C 9.113281 57.640625 13.691406 59.535156 18.464844 59.535156 L 41.535156 59.535156 C 46.308594 59.535156 50.886719 57.640625 54.265625 54.265625 C 57.640625 50.886719 59.535156 46.308594 59.535156 41.535156 L 59.535156 18.464844 C 59.535156 13.691406 57.640625 9.113281 54.265625 5.734375 C 50.886719 2.359375 46.308594 0.464844 41.535156 0.464844 L 18.464844 0.464844 C 13.691406 0.464844 9.113281 2.359375 5.734375 5.734375 C 2.359375 9.113281 0.464844 13.691406 0.464844 18.464844 Z M 0.464844 18.464844 " clip-rule="nonzero"/></clipPath><clipPath id="668320e0bc"><path d="M 15 40 L 16 40 L 16 41 L 15 41 Z M 15 40 " clip-rule="nonzero"/></clipPath><clipPath id="65f9b4d230"><path d="M 0.464844 18.464844 L 0.464844 41.535156 C 0.464844 46.308594 2.359375 50.886719 5.734375 54.265625 C 9.113281 57.640625 13.691406 59.535156 18.464844 59.535156 L 41.535156 59.535156 C 46.308594 59.535156 50.886719 57.640625 54.265625 54.265625 C 57.640625 50.886719 59.535156 46.308594 59.535156 41.535156 L 59.535156 18.464844 C 59.535156 13.691406 57.640625 9.113281 54.265625 5.734375 C 50.886719 2.359375 46.308594 0.464844 41.535156 0.464844 L 18.464844 0.464844 C 13.691406 0.464844 9.113281 2.359375 5.734375 5.734375 C 2.359375 9.113281 0.464844 13.691406 0.464844 18.464844 Z M 0.464844 18.464844 " clip-rule="nonzero"/></clipPath><clipPath id="2395cf3c63"><path d="M 0.464844 34.074219 L 18.851562 34.074219 L 18.851562 59.5625 L 0.464844 59.5625 Z M 0.464844 34.074219 " clip-rule="nonzero"/></clipPath><clipPath id="81e0099891"><path d="M 0.464844 18.464844 L 0.464844 41.535156 C 0.464844 46.308594 2.359375 50.886719 5.734375 54.265625 C 9.113281 57.640625 13.691406 59.535156 18.464844 59.535156 L 41.535156 59.535156 C 46.308594 59.535156 50.886719 57.640625 54.265625 54.265625 C 57.640625 50.886719 59.535156 46.308594 59.535156 41.535156 L 59.535156 18.464844 C 59.535156 13.691406 57.640625 9.113281 54.265625 5.734375 C 50.886719 2.359375 46.308594 0.464844 41.535156 0.464844 L 18.464844 0.464844 C 13.691406 0.464844 9.113281 2.359375 5.734375 5.734375 C 2.359375 9.113281 0.464844 13.691406 0.464844 18.464844 Z M 0.464844 18.464844 " clip-rule="nonzero"/></clipPath><clipPath id="1342d0cd94"><rect x="0" width="60" y="0" height="60"/></clipPath></defs><g mask="url(#9ca00662a2)"><g transform="matrix(1, 0, 0, 1, 20, 20)"><g clip-path="url(#a66f45d6c3)"><g clip-path="url(#1a3ea51590)"><g clip-path="url(#9fee7d8a5b)"><path fill="url(#99ca587c32)" d="M 0.914062 0.914062 L 0.914062 108.832031 L 108.832031 108.832031 L 108.832031 0.914062 Z M 0.914062 0.914062 " fill-rule="nonzero"/></g></g></g></g></g><g mask="url(#045ba91aed)"><g transform="matrix(1, 0, 0, 1, 45, 45)"><g clip-path="url(#1342d0cd94)"><g clip-path="url(#e150ba5a15)"><g clip-path="url(#fa0e5ed386)"><path fill="#4f8cd1" d="M 57.523438 4.539062 L 57.523438 35.058594 C 57.523438 37.308594 55.699219 39.132812 53.449219 39.132812 L 6.578125 39.183594 C 4.324219 39.183594 2.5 37.359375 2.5 35.109375 L 2.5 4.539062 C 2.5 2.296875 4.335938 0.464844 6.578125 0.464844 L 53.449219 0.464844 C 55.691406 0.464844 57.523438 2.296875 57.523438 4.539062 " fill-opacity="1" fill-rule="nonzero"/></g></g><g clip-path="url(#918a4db589)"><g clip-path="url(#9f4e59acc8)"><path fill="#ffffff" d="M 6.578125 35.109375 L 53.449219 35.109375 L 53.449219 4.539062 L 6.578125 4.539062 Z M 6.578125 35.109375 " fill-opacity="1" fill-rule="nonzero"/></g></g><g clip-path="url(#6134de1713)"><g clip-path="url(#84b4550f19)"><path fill="#e0312d" d="M 39.183594 19.824219 L 24.917969 11.671875 L 24.917969 27.976562 L 39.183594 19.824219 " fill-opacity="1" fill-rule="nonzero"/></g></g><g clip-path="url(#5fc412ce37)"><g clip-path="url(#90a147f44a)"><path fill="#ccccc9" d="M 39.183594 19.824219 L 34.472656 17.132812 L 39.183594 19.824219 " fill-opacity="1" fill-rule="nonzero"/></g></g><g clip-path="url(#17153513aa)"><g clip-path="url(#49f390c758)"><path fill="#b22a25" d="M 24.917969 27.976562 L 24.917969 22.589844 L 34.472656 17.132812 L 39.183594 19.824219 L 24.917969 27.976562 " fill-opacity="1" fill-rule="nonzero"/></g></g><g clip-path="url(#4997a40bd5)"><g clip-path="url(#933699b3b4)"><path fill="#3a6eb5" d="M 15.664062 39.175781 C 15.375 37.480469 14.390625 36.023438 13.015625 35.109375 L 26.632812 35.109375 C 25.257812 36.019531 24.277344 37.476562 23.988281 39.164062 L 15.664062 39.175781 M 36.039062 39.152344 C 35.746094 37.46875 34.765625 36.019531 33.394531 35.109375 L 47.011719 35.109375 C 45.644531 36.015625 44.664062 37.460938 44.371094 39.144531 L 36.039062 39.152344 M 3.871094 38.15625 C 3.03125 37.410156 2.5 36.320312 2.5 35.109375 L 2.5 34.089844 L 6.578125 34.089844 L 6.578125 34.90625 C 5.328125 35.628906 4.359375 36.777344 3.871094 38.15625 M 56.140625 38.117188 C 55.648438 36.757812 54.683594 35.621094 53.449219 34.90625 L 53.449219 4.539062 L 50.148438 4.539062 C 50.308594 3.203125 50.390625 1.84375 50.390625 0.464844 L 53.449219 0.464844 C 55.691406 0.464844 57.523438 2.296875 57.523438 4.539062 L 57.523438 35.058594 C 57.523438 36.277344 56.988281 37.371094 56.140625 38.117188 " fill-opacity="1" fill-rule="nonzero"/></g></g><g clip-path="url(#f36c0a62d8)"><g clip-path="url(#4817c62e64)"><path fill="#ccccc9" d="M 47.011719 35.109375 L 33.394531 35.109375 C 32.425781 34.464844 31.261719 34.089844 30.011719 34.089844 C 28.761719 34.089844 27.601562 34.464844 26.632812 35.109375 L 13.015625 35.109375 C 12.046875 34.464844 10.882812 34.089844 9.632812 34.089844 C 8.519531 34.089844 7.476562 34.386719 6.578125 34.90625 L 6.578125 34.089844 L 16.765625 34.089844 C 26.058594 34.089844 34.457031 30.328125 40.550781 24.246094 C 45.730469 19.058594 49.226562 12.199219 50.148438 4.539062 L 53.449219 4.539062 L 53.449219 34.90625 C 52.550781 34.386719 51.503906 34.089844 50.390625 34.089844 C 49.140625 34.089844 47.980469 34.464844 47.011719 35.109375 " fill-opacity="1" fill-rule="nonzero"/></g></g><g clip-path="url(#dc8bc92a5f)"><g clip-path="url(#1842e77773)"><path fill="#3f4d6a" d="M 12.605469 45.542969 C 14.480469 44.5 15.75 42.5 15.75 40.203125 C 15.75 36.828125 13.011719 34.089844 9.632812 34.089844 C 6.257812 34.089844 3.519531 36.828125 3.519531 40.203125 C 3.519531 42.5 4.789062 44.5 6.660156 45.542969 C 3.105469 46.421875 0.464844 49.621094 0.464844 53.449219 L 0.464844 59.5625 L 18.804688 59.5625 L 18.804688 53.449219 C 18.804688 49.621094 16.164062 46.421875 12.605469 45.542969 " fill-opacity="1" fill-rule="nonzero"/></g></g><g clip-path="url(#574494bdbf)"><g clip-path="url(#d45e54337c)"><path fill="#3f4d6a" d="M 32.984375 45.542969 C 34.859375 44.5 36.128906 42.5 36.128906 40.203125 C 36.128906 36.828125 33.390625 34.089844 30.011719 34.089844 C 26.636719 34.089844 23.898438 36.828125 23.898438 40.203125 C 23.898438 42.5 25.167969 44.5 27.039062 45.542969 C 23.484375 46.421875 20.84375 49.621094 20.84375 53.449219 L 20.84375 59.5625 L 39.183594 59.5625 L 39.183594 53.449219 C 39.183594 49.621094 36.542969 46.421875 32.984375 45.542969 " fill-opacity="1" fill-rule="nonzero"/></g></g><g clip-path="url(#2eb80c564f)"><g clip-path="url(#4a1f9e2ee2)"><path fill="#3f4d6a" d="M 53.363281 45.542969 C 55.238281 44.5 56.507812 42.5 56.507812 40.203125 C 56.507812 36.828125 53.769531 34.089844 50.390625 34.089844 C 47.015625 34.089844 44.277344 36.828125 44.277344 40.203125 C 44.277344 42.5 45.546875 44.5 47.417969 45.542969 C 43.863281 46.421875 41.222656 49.621094 41.222656 53.449219 L 41.222656 59.5625 L 59.5625 59.5625 L 59.5625 53.449219 C 59.5625 49.621094 56.921875 46.421875 53.363281 45.542969 " fill-opacity="1" fill-rule="nonzero"/></g></g><g clip-path="url(#353a39f771)"><g clip-path="url(#d41d3cb920)"><path fill="#ccccc9" d="M 56.507812 40.195312 L 56.507812 40.195312 M 56.507812 40.183594 L 56.507812 40.183594 M 56.507812 40.175781 L 56.507812 40.175781 M 56.507812 40.164062 L 56.507812 40.164062 M 56.507812 40.15625 L 56.507812 40.15625 M 56.507812 40.144531 L 56.507812 40.144531 M 56.503906 40.136719 L 56.503906 40.136719 M 56.503906 40.128906 C 56.503906 40.125 56.503906 40.125 56.503906 40.125 L 56.503906 40.128906 " fill-opacity="1" fill-rule="nonzero"/></g></g><g clip-path="url(#cffb1f7f2e)"><g clip-path="url(#2f5bfc0ca2)"><path fill="#323d53" d="M 59.5625 59.5625 L 41.222656 59.5625 L 41.222656 58.542969 L 50.390625 58.542969 C 53.769531 58.542969 56.507812 55.808594 56.507812 52.429688 C 56.507812 48.601562 53.863281 45.402344 50.308594 44.523438 C 52.179688 43.480469 53.449219 41.480469 53.449219 39.183594 C 53.449219 37.070312 52.375 35.203125 50.742188 34.105469 C 53.925781 34.289062 56.460938 36.898438 56.503906 40.117188 C 56.503906 40.121094 56.503906 40.125 56.503906 40.125 C 56.503906 40.125 56.503906 40.125 56.503906 40.128906 C 56.503906 40.128906 56.503906 40.132812 56.503906 40.136719 C 56.507812 40.140625 56.507812 40.144531 56.507812 40.144531 C 56.507812 40.148438 56.507812 40.152344 56.507812 40.15625 C 56.507812 40.160156 56.507812 40.160156 56.507812 40.164062 C 56.507812 40.167969 56.507812 40.171875 56.507812 40.175781 C 56.507812 40.179688 56.507812 40.179688 56.507812 40.183594 C 56.507812 40.1875 56.507812 40.191406 56.507812 40.195312 C 56.507812 40.195312 56.507812 40.199219 56.507812 40.203125 C 56.507812 42.5 55.238281 44.5 53.363281 45.542969 C 56.921875 46.421875 59.5625 49.621094 59.5625 53.449219 L 59.5625 59.5625 " fill-opacity="1" fill-rule="nonzero"/></g></g><g clip-path="url(#d38403772b)"><g clip-path="url(#6190ebceb0)"><path fill="#ccccc9" d="M 36.128906 40.195312 L 36.128906 40.195312 M 36.128906 40.183594 L 36.128906 40.183594 M 36.128906 40.175781 L 36.128906 40.175781 M 36.128906 40.164062 L 36.128906 40.164062 M 36.128906 40.15625 L 36.128906 40.15625 M 36.125 40.144531 L 36.125 40.144531 M 36.125 40.136719 L 36.125 40.136719 M 36.125 40.128906 C 36.125 40.125 36.125 40.125 36.125 40.125 L 36.125 40.128906 " fill-opacity="1" fill-rule="nonzero"/></g></g><g clip-path="url(#48e388f76a)"><g clip-path="url(#92dab5a496)"><path fill="#323d53" d="M 39.183594 59.5625 L 20.84375 59.5625 L 20.84375 58.542969 L 30.011719 58.542969 C 33.390625 58.542969 36.128906 55.808594 36.128906 52.429688 C 36.128906 48.601562 33.484375 45.402344 29.929688 44.523438 C 31.800781 43.480469 33.070312 41.480469 33.070312 39.183594 C 33.070312 37.070312 31.996094 35.203125 30.363281 34.105469 C 33.546875 34.289062 36.082031 36.898438 36.125 40.117188 C 36.125 40.121094 36.125 40.125 36.125 40.125 C 36.125 40.125 36.125 40.125 36.125 40.128906 C 36.125 40.128906 36.125 40.132812 36.125 40.136719 C 36.125 40.140625 36.125 40.144531 36.125 40.144531 C 36.128906 40.148438 36.128906 40.152344 36.128906 40.15625 C 36.128906 40.160156 36.128906 40.160156 36.128906 40.164062 C 36.128906 40.167969 36.128906 40.171875 36.128906 40.175781 C 36.128906 40.179688 36.128906 40.179688 36.128906 40.183594 C 36.128906 40.1875 36.128906 40.191406 36.128906 40.195312 C 36.128906 40.195312 36.128906 40.199219 36.128906 40.203125 C 36.128906 42.5 34.859375 44.5 32.984375 45.542969 C 36.542969 46.421875 39.183594 49.621094 39.183594 53.449219 L 39.183594 59.5625 " fill-opacity="1" fill-rule="nonzero"/></g></g><g clip-path="url(#668320e0bc)"><g clip-path="url(#65f9b4d230)"><path fill="#ccccc9" d="M 15.75 40.195312 L 15.75 40.195312 M 15.75 40.183594 L 15.75 40.183594 M 15.75 40.175781 L 15.75 40.175781 M 15.75 40.164062 L 15.75 40.164062 M 15.746094 40.15625 L 15.746094 40.15625 M 15.746094 40.144531 L 15.746094 40.144531 M 15.746094 40.136719 L 15.746094 40.136719 M 15.746094 40.128906 C 15.746094 40.125 15.746094 40.125 15.746094 40.125 L 15.746094 40.128906 " fill-opacity="1" fill-rule="nonzero"/></g></g><g clip-path="url(#2395cf3c63)"><g clip-path="url(#81e0099891)"><path fill="#323d53" d="M 18.804688 59.5625 L 0.464844 59.5625 L 0.464844 58.542969 L 9.632812 58.542969 C 13.011719 58.542969 15.75 55.808594 15.75 52.429688 C 15.75 48.601562 13.105469 45.402344 9.550781 44.523438 C 11.421875 43.480469 12.691406 41.480469 12.691406 39.183594 C 12.691406 37.070312 11.617188 35.203125 9.984375 34.105469 C 13.167969 34.289062 15.703125 36.898438 15.746094 40.117188 C 15.746094 40.121094 15.746094 40.125 15.746094 40.125 C 15.746094 40.125 15.746094 40.125 15.746094 40.128906 C 15.746094 40.128906 15.746094 40.132812 15.746094 40.136719 C 15.746094 40.140625 15.746094 40.144531 15.746094 40.144531 C 15.746094 40.148438 15.746094 40.152344 15.746094 40.15625 C 15.746094 40.160156 15.75 40.160156 15.75 40.164062 C 15.75 40.167969 15.75 40.171875 15.75 40.175781 C 15.75 40.179688 15.75 40.179688 15.75 40.183594 C 15.75 40.1875 15.75 40.191406 15.75 40.195312 C 15.75 40.195312 15.75 40.199219 15.75 40.203125 C 15.75 42.5 14.480469 44.5 12.605469 45.542969 C 16.164062 46.421875 18.804688 49.621094 18.804688 53.449219 L 18.804688 59.5625 " fill-opacity="1" fill-rule="nonzero"/></g></g></g></g></g></svg>